<svg width="14" height="13" viewBox="0 0 14 13" fill="none" xmlns="http://www.w3.org/2000/svg">
<path d="M12.1953 1.01562H10.9375V0.40625C10.9375 0.181898 10.7416 0 10.5 0C10.2584 0 10.0625 0.181898 10.0625 0.40625V1.01562H3.9375V0.40625C3.9375 0.181898 3.74164 0 3.5 0C3.25836 0 3.0625 0.181898 3.0625 0.40625V1.01562H1.80469C0.809566 1.01562 0 1.76737 0 2.69141V11.3242C0 12.2483 0.809566 13 1.80469 13H12.1953C13.1904 13 14 12.2483 14 11.3242V2.69141C14 1.76737 13.1904 1.01562 12.1953 1.01562ZM1.80469 1.82812H3.0625V2.23438C3.0625 2.45873 3.25836 2.64062 3.5 2.64062C3.74164 2.64062 3.9375 2.45873 3.9375 2.23438V1.82812H10.0625V2.23438C10.0625 2.45873 10.2584 2.64062 10.5 2.64062C10.7416 2.64062 10.9375 2.45873 10.9375 2.23438V1.82812H12.1953C12.708 1.82812 13.125 2.21538 13.125 2.69141V3.65625H0.875V2.69141C0.875 2.21538 1.29205 1.82812 1.80469 1.82812ZM12.1953 12.1875H1.80469C1.29205 12.1875 0.875 11.8002 0.875 11.3242V4.46875H13.125V11.3242C13.125 11.8002 12.708 12.1875 12.1953 12.1875Z" fill="#05B98C"/>
</svg>
