<svg width="17" height="17" viewBox="0 0 17 17" fill="none" xmlns="http://www.w3.org/2000/svg">
<g clip-path="url(#clip0)">
<path d="M8.91643 8.50003C8.90085 8.70042 8.96175 8.90509 9.11543 9.05805L15.4337 15.3657C15.7127 15.644 16.1645 15.644 16.4436 15.3657C16.7226 15.0874 16.7226 14.6363 16.4436 14.3573L10.5764 8.50003L16.4436 2.64274C16.7226 2.36446 16.7226 1.91333 16.4436 1.63502C16.1645 1.35673 15.7127 1.35673 15.4337 1.63502L9.1154 7.94271C8.96175 8.09567 8.90154 8.2996 8.91643 8.50003ZM0.547248 9.05805L8.29391 16.7913C8.57295 17.0696 9.02476 17.0696 9.30377 16.7913C9.5828 16.513 9.5828 16.0612 9.30377 15.7836L2.0082 8.50003L9.3038 1.2172C9.58283 0.938886 9.58283 0.487792 9.3038 0.208757C9.02476 -0.0695579 8.57295 -0.0695579 8.29394 0.208757L0.547993 7.94196C0.394316 8.09492 0.334128 8.2996 0.349715 8.50001C0.333382 8.70042 0.394288 8.90509 0.547248 9.05805Z" fill="#05B98C"/>
</g>
<defs>
<clipPath id="clip0">
<rect width="17" height="17" fill="white" transform="translate(17 17) rotate(-180)"/>
</clipPath>
</defs>
</svg>
