<svg width="28" height="28" viewBox="0 0 28 28" fill="none" xmlns="http://www.w3.org/2000/svg">
    <g clip-path="url(#clip0)">
        <path d="M19.3885 9.53668L19.1044 8.60175C18.7436 7.53972 17.5901 6.97132 16.5281 7.33215C15.9306 7.53513 15.4615 8.00431 15.2585 8.60175L14.9744 9.53668C14.7354 10.3252 14.6852 11.1588 14.828 11.9702C14.9582 12.6534 15.3919 13.2403 16.0067 13.5653L15.6886 20.6771C15.646 21.074 15.7747 21.4703 16.0425 21.7664C16.6185 22.3964 17.5961 22.4402 18.226 21.8643C18.2601 21.8331 18.2927 21.8005 18.3239 21.7664C18.5857 21.4787 18.7142 21.094 18.6779 20.7067L18.358 13.5644C18.9719 13.2393 19.4049 12.6527 19.5349 11.9702C19.6777 11.1588 19.6275 10.3252 19.3885 9.53668ZM18.6633 11.8163C18.5675 12.3071 18.2177 12.7098 17.7451 12.8733C17.5658 12.9407 17.4502 13.1159 17.4589 13.3074L17.7951 20.7766C17.8106 20.9231 17.7623 21.0692 17.6624 21.1775C17.396 21.4413 16.9669 21.4413 16.7005 21.1775C16.5956 21.0605 16.548 20.903 16.5704 20.7474L16.904 13.3074C16.9126 13.1159 16.7971 12.9407 16.6177 12.8733C16.1452 12.7098 15.7954 12.3071 15.6996 11.8163C15.5813 11.1426 15.623 10.4505 15.8213 9.79596L16.1054 8.86059C16.3252 8.2663 16.9851 7.96272 17.5794 8.18251C17.8936 8.29871 18.1413 8.54644 18.2575 8.86059L18.5416 9.79596C18.7397 10.4506 18.7814 11.1426 18.6633 11.8163Z"
              fill="#05B98C"/>
        <path d="M12.5355 7.22607C12.2911 7.22607 12.093 7.42419 12.093 7.66854V11.4676L10.8953 12.6653C10.8067 12.7536 10.7596 12.8753 10.7656 13.0003L11.1528 20.7434C11.162 20.9104 11.1014 21.0737 10.9855 21.1943C10.7433 21.4386 10.3489 21.4404 10.1045 21.1981C10.1032 21.1969 10.1019 21.1955 10.1006 21.1943C9.98468 21.0737 9.92412 20.9104 9.93336 20.7434L10.3232 13.0003C10.3294 12.8754 10.2824 12.7537 10.194 12.6653L8.99577 11.4676V7.66854C8.99577 7.42419 8.79766 7.22607 8.55331 7.22607C8.30895 7.22607 8.11084 7.42419 8.11084 7.66854V11.6507C8.11084 11.7681 8.15752 11.8806 8.24048 11.9636L9.42895 13.1525L9.05152 20.7005C9.01137 21.525 9.64719 22.2259 10.4717 22.2661C11.2962 22.3062 11.9971 21.6704 12.0373 20.8459C12.0397 20.7975 12.0397 20.749 12.0373 20.7005L11.6599 13.1525L12.8483 11.9636C12.9313 11.8806 12.978 11.7682 12.978 11.6508V7.6686C12.978 7.42419 12.7798 7.22607 12.5355 7.22607Z"
              fill="#05B98C"/>
        <path d="M9.88094 7.22607C9.63659 7.22607 9.43848 7.42419 9.43848 7.66854V11.2083C9.43848 11.4526 9.63659 11.6507 9.88094 11.6507C10.1253 11.6507 10.3234 11.4526 10.3234 11.2083V7.66854C10.3234 7.42419 10.1253 7.22607 9.88094 7.22607Z"
              fill="#05B98C"/>
        <path d="M11.2081 7.22607C10.9637 7.22607 10.7656 7.42419 10.7656 7.66854V11.2083C10.7656 11.4526 10.9637 11.6507 11.2081 11.6507C11.4524 11.6507 11.6506 11.4526 11.6506 11.2083V7.66854C11.6506 7.42419 11.4524 7.22607 11.2081 7.22607Z"
              fill="#05B98C"/>
        <path d="M13.8628 0.589111C6.53185 0.589111 0.588867 6.53209 0.588867 13.8631C0.588867 21.1941 6.53185 27.1371 13.8628 27.1371C21.1938 27.1371 27.1368 21.1941 27.1368 13.8631C27.1285 6.53552 21.1904 0.597408 13.8628 0.589111ZM13.8628 26.2521C7.02055 26.2521 1.4738 20.7054 1.4738 13.8631C1.4738 7.02079 7.02055 1.47404 13.8628 1.47404C20.7051 1.47404 26.2519 7.02079 26.2519 13.8631C26.2441 20.7021 20.7019 26.2443 13.8628 26.2521Z"
              fill="#05B98C"/>
        <path d="M15.2992 22.1688C15.2755 21.9256 15.0591 21.7477 14.8158 21.7714C14.8101 21.772 14.8044 21.7726 14.7987 21.7734L14.8005 21.773C14.1776 21.8453 13.5483 21.8453 12.9253 21.773C12.6825 21.7445 12.4627 21.9182 12.4342 22.161C12.4057 22.4038 12.5794 22.6237 12.8223 22.6521C13.5131 22.7328 14.211 22.7328 14.9018 22.6521C15.145 22.6285 15.323 22.412 15.2992 22.1688Z"
              fill="#05B98C"/>
        <path d="M20.6329 8.16155C20.4759 7.97433 20.1968 7.94983 20.0096 8.10691C20.009 8.10741 20.0084 8.10796 20.0077 8.10846C19.8209 8.26597 19.7971 8.54506 19.9546 8.73189C22.6224 11.8988 22.4183 16.5817 19.4851 19.5046C19.312 19.6771 19.3115 19.9574 19.484 20.1305C19.6565 20.3036 19.9368 20.3041 20.1099 20.1316C23.3696 16.8843 23.5969 11.6808 20.6329 8.16155Z"
              fill="#05B98C"/>
        <path d="M15.9502 5.26099C14.221 4.84657 12.4074 4.95796 10.7419 5.58089C10.5132 5.6669 10.3975 5.92209 10.4835 6.15079C10.5483 6.32318 10.7132 6.43728 10.8973 6.43745C10.9502 6.43717 11.0026 6.4275 11.0521 6.40875C12.5519 5.84787 14.1851 5.7477 15.7422 6.12114C15.9798 6.17855 16.2189 6.0326 16.2763 5.79505C16.3337 5.5575 16.1877 5.3184 15.9502 5.26099Z"
              fill="#05B98C"/>
        <path d="M8.22075 19.4825C6.72914 17.9934 5.89316 15.9709 5.89825 13.8632C5.89388 12.1793 6.42727 10.5379 7.42077 9.17835C7.56762 8.983 7.52829 8.70563 7.33294 8.55878C7.1376 8.41194 6.86022 8.45126 6.71338 8.64661C6.71078 8.6501 6.70824 8.65358 6.70575 8.65712C4.14758 12.1741 4.52401 17.0285 7.59378 20.109C7.76678 20.2821 8.04742 20.2822 8.22053 20.1092C8.39364 19.9362 8.39375 19.6556 8.22075 19.4825Z"
              fill="#05B98C"/>
    </g>
    <defs>
        <clipPath id="clip0">
            <rect x="0.588867" y="0.589111" width="26.5479" height="26.5479" fill="white"/>
        </clipPath>
    </defs>
</svg>
