<svg width="20" height="20" viewBox="0 0 20 20" fill="none" xmlns="http://www.w3.org/2000/svg">
<circle cx="10" cy="10" r="10" fill="#05B98C"/>
<path d="M19.9669 9.29903C19.8633 7.80547 19.4383 6.38953 18.7039 5.09032L18.6067 4.91821H7.37693C5.92775 4.91821 4.74902 6.09714 4.74902 7.54632V9.6612H19.9922L19.9669 9.29903ZM5.42652 8.9836V7.54632C5.42652 6.47072 6.30143 5.59581 7.37693 5.59581H18.2092C18.778 6.65245 19.1303 7.78979 19.2591 8.9836H5.42652Z" fill="#EAF7F3"/>
<path d="M7.28929 6.27319C6.63541 6.27319 6.10352 6.80529 6.10352 7.45897C6.10352 8.11264 6.63541 8.64474 7.28929 8.64474C7.94316 8.64474 8.47506 8.11264 8.47506 7.45897C8.47506 6.80529 7.94316 6.27319 7.28929 6.27319ZM7.28929 7.96714C7.0091 7.96714 6.78111 7.73916 6.78111 7.45897C6.78111 7.17877 7.0091 6.95079 7.28929 6.95079C7.56948 6.95079 7.79746 7.17877 7.79746 7.45897C7.79746 7.73916 7.56948 7.96714 7.28929 7.96714Z" fill="#EAF7F3"/>
<path d="M10.0002 6.27319C9.34635 6.27319 8.81445 6.80529 8.81445 7.45897C8.81445 8.11264 9.34635 8.64474 10.0002 8.64474C10.6541 8.64474 11.186 8.11264 11.186 7.45897C11.186 6.80529 10.6541 6.27319 10.0002 6.27319ZM10.0002 7.96714C9.72003 7.96714 9.49205 7.73916 9.49205 7.45897C9.49205 7.17877 9.72003 6.95079 10.0002 6.95079C10.2804 6.95079 10.5084 7.17877 10.5084 7.45897C10.5084 7.73916 10.2804 7.96714 10.0002 7.96714Z" fill="#EAF7F3"/>
<path d="M12.7101 6.26758C12.053 6.26758 11.5186 6.80205 11.5186 7.4591C11.5186 8.11616 12.053 8.65063 12.7101 8.65063C13.3671 8.65063 13.9016 8.11616 13.9016 7.4591C13.9015 6.80205 13.3671 6.26758 12.7101 6.26758ZM12.7101 7.96152C12.4332 7.96152 12.2077 7.73622 12.2077 7.4591C12.2077 7.18199 12.4332 6.95669 12.7101 6.95669C12.987 6.95669 13.2125 7.18199 13.2125 7.4591C13.2125 7.73622 12.987 7.96152 12.7101 7.96152Z" fill="#EAF7F3"/>
<path d="M19.9671 9.29887L19.9453 8.98364H4.74902V18.5047L4.91517 18.6032C6.4514 19.5132 8.20966 19.994 10.0001 19.994C15.5109 19.994 19.9941 15.5106 19.9941 9.99999C19.9942 9.78838 19.9856 9.56546 19.9671 9.29887ZM10.0002 19.3165C8.39537 19.3165 6.81834 18.9022 5.42662 18.1164V9.66124H19.3093C19.3141 9.78134 19.3167 9.8925 19.3167 9.99999C19.3167 15.1371 15.1373 19.3165 10.0002 19.3165Z" fill="#EAF7F3"/>
<path d="M9.83043 11.0164C8.52277 11.0164 7.45898 12.0801 7.45898 13.3878C7.45898 14.6955 8.52277 15.7592 9.83043 15.7592C11.1381 15.7592 12.2019 14.6955 12.2019 13.3878C12.2019 12.0801 11.1382 11.0164 9.83043 11.0164ZM9.83043 15.0817C8.89636 15.0817 8.13648 14.3219 8.13648 13.3878C8.13648 12.4537 8.89636 11.6939 9.83043 11.6939C10.7645 11.6939 11.5244 12.4537 11.5244 13.3878C11.5244 14.3219 10.7645 15.0817 9.83043 15.0817Z" fill="#EAF7F3"/>
<path d="M13.7969 16.8751L11.5948 14.673C11.4627 14.5407 11.2479 14.5407 11.1158 14.673C10.9835 14.8053 10.9835 15.0197 11.1158 15.152L13.3179 17.3541C13.384 17.4203 13.4707 17.4533 13.5574 17.4533C13.6442 17.4533 13.7309 17.4203 13.7969 17.3541C13.9292 17.2218 13.9292 17.0074 13.7969 16.8751Z" fill="#EAF7F3"/>
</svg>
