<svg width="27" height="28" viewBox="0 0 27 28" fill="none" xmlns="http://www.w3.org/2000/svg">
<g clip-path="url(#clip0)">
<path d="M3.22627 21.7557L1.79124 21.7557C1.60095 21.7557 1.41845 21.6801 1.28389 21.5456C1.14933 21.411 1.07373 21.2285 1.07373 21.0382L1.07373 7.4055C1.07373 7.2152 1.14933 7.0327 1.28389 6.89814C1.41844 6.76358 1.60095 6.68799 1.79124 6.68799L3.22627 6.68799C3.41656 6.68799 3.59907 6.76358 3.73363 6.89814C3.86819 7.0327 3.94378 7.2152 3.94378 7.4055L3.94378 21.0382C3.94378 21.2285 3.86819 21.411 3.73363 21.5456C3.59907 21.6801 3.41657 21.7557 3.22627 21.7557ZM1.79124 7.4055L1.79124 21.0382L3.22627 21.0382L3.22627 7.4055L1.79124 7.4055Z" fill="#05B98C"/>
<path d="M25.4689 21.7556L24.0339 21.7556C23.8436 21.7556 23.6611 21.68 23.5266 21.5454C23.392 21.4108 23.3164 21.2283 23.3164 21.038L23.3164 9.55784C23.3164 9.36755 23.392 9.18505 23.5266 9.05049C23.6611 8.91593 23.8436 8.84033 24.0339 8.84033L25.4689 8.84033C25.6592 8.84033 25.8417 8.91593 25.9763 9.05049C26.1109 9.18505 26.1865 9.36755 26.1865 9.55784L26.1865 21.038C26.1865 21.2283 26.1109 21.4108 25.9763 21.5454C25.8417 21.68 25.6592 21.7556 25.4689 21.7556ZM24.0339 9.55784L24.0339 21.038L25.4689 21.038L25.4689 9.55784L24.0339 9.55784Z" fill="#05B98C"/>
<path d="M12.8088 19.9619L11.7684 19.9619C11.6733 19.9619 11.582 19.9241 11.5147 19.8568C11.4475 19.7895 11.4097 19.6983 11.4097 19.6031C11.4097 19.508 11.4475 19.4167 11.5147 19.3495C11.582 19.2822 11.6733 19.2444 11.7684 19.2444L12.8088 19.2444C12.904 19.2444 12.9952 19.2822 13.0625 19.3495C13.1298 19.4167 13.1676 19.508 13.1676 19.6031C13.1676 19.6983 13.1298 19.7895 13.0625 19.8568C12.9952 19.9241 12.904 19.9619 12.8088 19.9619Z" fill="#05B98C"/>
<path d="M23.6752 19.9618L18.8965 19.9618C18.8014 19.9618 18.7101 19.924 18.6429 19.8568C18.5756 19.7895 18.5378 19.6982 18.5378 19.6031C18.5378 19.5079 18.5756 19.4167 18.6429 19.3494C18.7101 19.2821 18.8014 19.2443 18.8965 19.2443L23.3164 19.2443L23.3164 17.8093L3.94359 17.8093L3.94359 19.2443L9.25676 19.2443C9.35191 19.2443 9.44316 19.2821 9.51044 19.3494C9.57772 19.4167 9.61552 19.5079 9.61552 19.6031C9.61552 19.6982 9.57772 19.7895 9.51044 19.8568C9.44316 19.924 9.35191 19.9618 9.25676 19.9618L3.58483 19.9618C3.48968 19.9618 3.39843 19.924 3.33115 19.8568C3.26387 19.7895 3.22607 19.6982 3.22607 19.6031L3.22607 17.4506C3.22607 17.3554 3.26387 17.2642 3.33115 17.1969C3.39843 17.1296 3.48968 17.0918 3.58483 17.0918L23.6752 17.0918C23.7703 17.0918 23.8616 17.1296 23.9288 17.1969C23.9961 17.2642 24.0339 17.3554 24.0339 17.4506L24.0339 19.6031C24.0339 19.6982 23.9961 19.7895 23.9288 19.8568C23.8616 19.924 23.7703 19.9618 23.6752 19.9618Z" fill="#05B98C"/>
<path d="M16.3857 19.9619L15.3202 19.9619C15.225 19.9619 15.1338 19.9241 15.0665 19.8568C14.9992 19.7895 14.9614 19.6983 14.9614 19.6031C14.9614 19.508 14.9992 19.4167 15.0665 19.3495C15.1338 19.2822 15.225 19.2444 15.3202 19.2444L16.3857 19.2444C16.4808 19.2444 16.5721 19.2822 16.6394 19.3495C16.7067 19.4167 16.7445 19.508 16.7445 19.6031C16.7445 19.6983 16.7067 19.7895 16.6394 19.8568C16.5721 19.9241 16.4808 19.9619 16.3857 19.9619Z" fill="#05B98C"/>
<path d="M23.6752 17.8096L3.58483 17.8096C3.48968 17.8096 3.39843 17.7718 3.33115 17.7045C3.26387 17.6372 3.22607 17.546 3.22607 17.4508L3.22607 13.5045C3.22607 13.4094 3.26387 13.3181 3.33115 13.2508C3.39843 13.1835 3.48968 13.1458 3.58483 13.1458L21.8814 13.1458C22.4521 13.1463 22.9993 13.3733 23.4028 13.7768C23.8064 14.1804 24.0334 14.7276 24.0339 15.2983L24.0339 17.4508C24.0339 17.546 23.9961 17.6372 23.9288 17.7045C23.8616 17.7718 23.7703 17.8096 23.6752 17.8096ZM3.94359 17.0921L23.3164 17.0921L23.3164 15.2983C23.3164 14.9177 23.1652 14.5527 22.8961 14.2836C22.627 14.0145 22.262 13.8633 21.8814 13.8633L3.94359 13.8633L3.94359 17.0921Z" fill="#05B98C"/>
<path d="M7.8899 13.863L3.58483 13.863C3.48968 13.863 3.39843 13.8252 3.33115 13.7579C3.26387 13.6906 3.22607 13.5994 3.22607 13.5042L3.22607 11.3517C3.22607 11.2565 3.26387 11.1653 3.33115 11.098C3.39843 11.0307 3.48968 10.9929 3.58483 10.9929L7.35177 10.9929C7.58964 10.9929 7.81776 11.0874 7.98596 11.2556C8.15416 11.4238 8.24866 11.6519 8.24866 11.8898L8.24866 13.5042C8.24866 13.5994 8.21086 13.6906 8.14358 13.7579C8.0763 13.8252 7.98505 13.863 7.8899 13.863ZM3.94359 13.1455L7.53115 13.1455L7.53115 11.8898C7.53115 11.8422 7.51225 11.7966 7.47861 11.763C7.44497 11.7293 7.39934 11.7104 7.35177 11.7104L3.94359 11.7104L3.94359 13.1455Z" fill="#05B98C"/>
</g>
<defs>
<clipPath id="clip0">
<rect x="0.356445" y="0.589111" width="26.5479" height="26.5479" fill="white"/>
</clipPath>
</defs>
</svg>
