<svg width="38" height="35" viewBox="0 0 38 35" fill="none" xmlns="http://www.w3.org/2000/svg">
    <path d="M34.6794 8.81063H30.5432V2.0574C30.5432 1.44066 30.0433 0.940918 29.4268 0.940918H8.21522C7.59863 0.940918 7.09874 1.44066 7.09874 2.0574V8.81063H2.96255C1.52616 8.81063 0.357422 9.97921 0.357422 11.4158V25.7402C0.357422 27.1766 1.52616 28.3454 2.96255 28.3454H7.09874V33.8835C7.09874 34.5003 7.59863 35 8.21522 35H29.4266C30.0432 35 30.5431 34.5003 30.5431 33.8835V28.3454H34.6793C36.1157 28.3454 37.2844 27.1766 37.2844 25.7402V11.4158C37.2846 9.97936 36.1158 8.81063 34.6794 8.81063ZM9.33171 3.17388H28.3101V8.81063H9.33171V3.17388ZM28.3101 32.7671H9.33171V21.691H28.3101V32.7671ZM35.0516 25.7402C35.0516 25.9419 34.8811 26.1124 34.6794 26.1124H30.5432V20.5745C30.5432 19.9577 30.0433 19.458 29.4268 19.458H8.21522C7.59863 19.458 7.09874 19.9577 7.09874 20.5745V26.1124H2.96255C2.76084 26.1124 2.59039 25.9419 2.59039 25.7402V11.4158C2.59039 11.2139 2.76084 11.0436 2.96255 11.0436H8.21522H29.4266H34.6793C34.881 11.0436 35.0514 11.2139 35.0514 11.4158V25.7402H35.0516Z"
          fill="black"/>
    <path d="M29.426 16.8388C30.303 16.8388 31.0141 16.1278 31.0141 15.2507C31.0141 14.3736 30.303 13.6626 29.426 13.6626C28.5489 13.6626 27.8379 14.3736 27.8379 15.2507C27.8379 16.1278 28.5489 16.8388 29.426 16.8388Z"
          fill="black"/>
    <path d="M23.9006 23.894H13.7415C13.1249 23.894 12.625 24.3938 12.625 25.0105C12.625 25.6273 13.1249 26.127 13.7415 26.127H23.9006C24.5172 26.127 25.0171 25.6273 25.0171 25.0105C25.0171 24.3939 24.5173 23.894 23.9006 23.894Z"
          fill="black"/>
    <path d="M23.9006 28.3303H13.7415C13.1249 28.3303 12.625 28.8301 12.625 29.4468C12.625 30.0635 13.1249 30.5633 13.7415 30.5633H23.9006C24.5172 30.5633 25.0171 30.0635 25.0171 29.4468C25.0171 28.8301 24.5173 28.3303 23.9006 28.3303Z"
          fill="black"/>
</svg>
