<svg id="Capa_1" data-name="Capa 1" xmlns="http://www.w3.org/2000/svg" viewBox="0 0 924.83 908.32"><path d="M664.43,924.79l8.77,8.7c7.35,7.29,17.46,12.11,27,12.9,10.74.87,21.64-1.83,29.89-7.43l.2-.13a42.24,42.24,0,0,0,6.29-5.21l205-205A45,45,0,1,0,878,664.9L749.88,793V83.59a45,45,0,0,0-90,0V793L529.76,662.9a45,45,0,0,0-63.67,63.68L664.3,924.79Z" transform="translate(-30 -38.27)"/><path d="M502.26,240.31l-13.34-13.39c-8.64-8.69-17.58-17.67-26.4-26.36l-.1-.09C445.14,183.28,427.8,166,410.9,148.94c-7.3-7.39-14.86-14.82-22.17-22-9.53-9.38-19.38-19.07-29-28.95-12.9-13.22-30.12-30.58-48.47-47.12-6.79-6.12-20.89-15.78-38.73-11.58l-.26.06a42,42,0,0,0-10.41,3.85c-9.67,5.47-18.95,15-28.77,25.06-2.66,2.73-5.41,5.55-8.2,8.32C214,87.36,203,98.47,192.41,109.22q-8.22,8.31-16.46,16.62c-14.71,14.79-29.74,29.72-44.27,44.16l-14.55,14.47c-11,11.09-22.18,22.35-33,33.25Q75.87,226,67.65,234.24c-4.08,4.09-8.11,8.08-12.13,12.08s-8,7.91-11.93,11.88l-.4.4a45,45,0,0,0,0,63.68l.07.07a44.84,44.84,0,0,0,63.43,0l.07-.07L236.88,192.16V901.59a45,45,0,0,0,90,0V192.16L455,320.28a44.84,44.84,0,0,0,63.5.07l.07-.07a45.07,45.07,0,0,0,0-63.68Z" transform="translate(-30 -38.27)"/></svg>