<svg width="28" height="28" viewBox="0 0 28 28" fill="none" xmlns="http://www.w3.org/2000/svg">
<g clip-path="url(#clip0)">
<path d="M6.78321 18.0667C5.31908 18.0667 4.12842 19.2573 4.12842 20.7214C4.12842 22.1856 5.31908 23.3762 6.78321 23.3762C8.24734 23.3762 9.43801 22.1856 9.43801 20.7214C9.43801 19.2573 8.24729 18.0667 6.78321 18.0667ZM6.78321 22.4913C5.80711 22.4913 5.01337 21.6975 5.01337 20.7214C5.01337 19.7453 5.80716 18.9516 6.78321 18.9516C7.75926 18.9516 8.55306 19.7454 8.55306 20.7214C8.55306 21.6975 7.75926 22.4913 6.78321 22.4913Z" fill="#05B98C"/>
<path d="M21.8272 18.0667C20.363 18.0667 19.1724 19.2573 19.1724 20.7214C19.1724 22.1856 20.363 23.3762 21.8272 23.3762C23.2913 23.3762 24.482 22.1856 24.482 20.7214C24.482 19.2573 23.2913 18.0667 21.8272 18.0667ZM21.8272 22.4913C20.8511 22.4913 20.0573 21.6975 20.0573 20.7214C20.0573 19.7453 20.8511 18.9516 21.8272 18.9516C22.8033 18.9516 23.597 19.7454 23.597 20.7214C23.597 21.6975 22.8033 22.4913 21.8272 22.4913Z" fill="#05B98C"/>
<path d="M27.0662 15.6149L23.084 9.42039C23.0026 9.29382 22.8624 9.21729 22.7119 9.21729H17.8448C17.6001 9.21729 17.4023 9.41551 17.4023 9.65973V20.7214C17.4023 20.966 17.6001 21.1638 17.8448 21.1638H19.6146V20.2789H18.2872V10.1022H22.4703L26.2516 15.9844V20.279H24.0393V21.1639H26.6941C26.9388 21.1639 27.1365 20.9661 27.1365 20.7214V15.8543C27.1366 15.7698 27.1123 15.6861 27.0662 15.6149Z" fill="#05B98C"/>
<path d="M20.0573 14.9693V11.872H23.597V10.9871H19.6148C19.3701 10.9871 19.1724 11.1853 19.1724 11.4295V15.4117C19.1724 15.6564 19.3701 15.8541 19.6148 15.8541H26.2518V14.9692H20.0573V14.9693Z" fill="#05B98C"/>
<path d="M17.845 6.11987H1.03132C0.787095 6.11987 0.588867 6.3181 0.588867 6.56232V20.7212C0.588867 20.9659 0.787095 21.1637 1.03132 21.1637H4.57106V20.2787H1.47382V7.00477H17.4026V20.2787H8.9957V21.1637H17.845C18.0897 21.1637 18.2875 20.9659 18.2875 20.7212V6.56232C18.2875 6.3181 18.0897 6.11987 17.845 6.11987Z" fill="#05B98C"/>
<path d="M3.68604 18.509H1.03125V19.394H3.68604V18.509Z" fill="#05B98C"/>
<path d="M17.4023 18.509H9.88037V19.394H17.4023V18.509Z" fill="#05B98C"/>
<path d="M26.6942 18.509H24.9243V19.394H26.6942V18.509Z" fill="#05B98C"/>
<path d="M17.8452 7.88989H2.35889V8.77484H17.8452V7.88989Z" fill="#05B98C"/>
<path d="M7.22668 20.2788H6.34082V21.1647H7.22668V20.2788Z" fill="#05B98C"/>
<path d="M22.2706 20.2788H21.3848V21.1647H22.2706V20.2788Z" fill="#05B98C"/>
<path d="M8.55343 4.3501H2.35889V5.23505H8.55343V4.3501Z" fill="#05B98C"/>
<path d="M1.47472 4.3501H0.588867V5.23595H1.47472V4.3501Z" fill="#05B98C"/>
</g>
<defs>
<clipPath id="clip0">
<rect x="0.588867" y="0.589111" width="26.5479" height="26.5479" fill="white"/>
</clipPath>
</defs>
</svg>
