<svg width="196" height="166" viewBox="0 0 196 166" fill="none" xmlns="http://www.w3.org/2000/svg">
<path d="M94.6465 80.917C94.5907 81.0418 94.5435 81.1666 94.4899 81.2979C90.413 91.2336 87.5785 103.136 86.9176 117.374C75.6139 89.6045 56.8517 76.1611 40.1516 69.7051C40.4498 60.4257 41.7372 44.288 46.9943 34.3738C46.9943 34.3738 55.8883 36.459 67.0825 45.2564C75.9143 52.1944 86.1881 63.3245 94.6465 80.917Z" fill="#FFCA64"/>
<path d="M88.7778 144.202C88.6709 144.202 88.5641 144.202 88.4551 144.202C46.4515 144.202 11.6576 112.195 5.42232 70.3986C4.99495 66.8305 4.93939 64.7017 4.93939 64.7017C4.93939 64.7017 20.0916 63.1572 37.6692 70.1086C53.253 76.2759 70.743 89.1153 81.2839 115.649V115.668C81.348 115.825 81.4121 115.984 81.4677 116.15C84.6195 124.175 87.126 133.448 88.765 144.15C88.7714 144.161 88.7778 144.183 88.7778 144.202Z" fill="#FFCA64"/>
<path d="M187.707 66.2323C183.652 113.563 145.061 150.72 98 150.909C98.0281 148.762 98.7036 124.466 113.443 102.441C120.035 92.5029 128.887 84.2499 139.284 78.3505C139.579 78.183 139.866 78.022 140.166 77.8588C140.529 77.6441 140.898 77.4594 141.267 77.2619C141.362 77.2061 141.466 77.1567 141.569 77.1008C141.93 76.9119 142.292 76.7208 142.661 76.5383C142.854 76.4395 143.046 76.3429 143.242 76.2506C143.639 76.0359 144.043 75.8491 144.446 75.6601C144.85 75.4712 145.206 75.3016 145.588 75.1255C145.636 75.1062 145.677 75.0847 145.724 75.0633C146.011 74.9301 146.298 74.8035 146.587 74.6768C146.948 74.5093 147.31 74.3526 147.679 74.2001C148.759 73.7364 149.861 73.2919 150.99 72.8711L151.379 72.7229C151.858 72.5404 152.335 72.3665 152.821 72.1969C162.604 68.7465 174.129 66.5694 187.707 66.2323Z" fill="#FFCA64"/>
<path d="M123.99 44.1795C114.366 51.4687 103.521 62.9589 96.3676 80.4848C87.8654 62.4683 77.537 51.071 68.6566 43.9634C73.9019 34.1847 85.7842 14.3227 96.5945 5.03027C96.5945 5.02595 112.948 21.1905 123.99 44.1795Z" fill="#FFCA64"/>
<path d="M151.657 70.0019C151.184 70.168 150.719 70.3405 150.253 70.5195L149.874 70.6662C148.776 71.0802 147.699 71.518 146.663 71.9731C146.304 72.1262 145.952 72.2793 145.593 72.4454C145.308 72.5705 145.028 72.6934 144.75 72.825L144.615 72.8875C144.242 73.0601 143.87 73.2347 143.506 73.4137C143.142 73.5928 142.721 73.7955 142.335 73.996C142.143 74.0845 141.956 74.1815 141.77 74.2786C141.411 74.4597 141.057 74.6452 140.7 74.8328C140.599 74.8889 140.499 74.9364 140.407 74.9924C140.047 75.1865 139.688 75.3806 139.337 75.5812C139.043 75.7386 138.763 75.8982 138.48 76.0643C128.367 81.8761 119.755 90.0081 113.344 99.8005C99.0033 121.501 98.3483 145.436 98.3226 147.556L98.2884 147.493C96.5761 136.259 93.9455 126.526 90.6472 118.102L90.9062 117.239L90.4546 117.593C90.4546 117.593 90.4546 117.593 90.4546 117.578C91.0967 103.305 93.8792 91.3723 97.8496 81.4107L98.222 81.4948C98.1493 81.3416 98.0765 81.1821 98.008 81.0311C104.945 63.8813 115.48 52.6343 124.821 45.4979C135.839 37.0869 145.238 34.3738 145.238 34.3738C150.272 40.6173 151.417 59.7146 151.657 70.0019Z" fill="#FFCA64"/>
<path d="M87.101 120.727V119.418H87.898L87.346 119.064L87.9325 119.418L88.5294 119.051L88.7709 119.208L88.7778 119.654L87.101 120.727Z" fill="#CCDDE2"/>
<path d="M88.7141 122.404L87.8122 120.165C82.2836 106.419 74.6159 94.8651 65.0486 85.8275C57.2224 78.4508 48.03 72.6519 37.9806 68.752L37.6364 68.6179V68.2501C37.9457 58.5331 39.3203 40.6052 45.0428 29.7047L45.2301 29.3434L45.6287 29.4386C45.7289 29.4624 48.1055 30.0357 51.9917 31.7948C55.562 33.411 61.1276 36.3796 67.3664 41.3408C79.3472 50.8608 89.3305 63.9379 97.0593 80.2064L97.1617 80.4228L97.0658 80.6391C97.031 80.7192 97.0005 80.8014 96.9656 80.8836L96.9024 81.0416C92.1951 92.6647 89.4765 105.772 88.8252 119.987L88.7141 122.404ZM38.7082 67.9169C48.7511 71.8624 57.9384 77.6855 65.7718 85.0703C74.9557 93.7508 82.3925 104.686 87.9037 117.633C88.738 104.18 91.437 91.7473 95.9331 80.6348L95.9919 80.4833C96.0001 80.4672 96.0073 80.4505 96.0137 80.4336C88.3677 64.4053 78.5107 51.5229 66.7129 42.137C60.57 37.2796 55.098 34.3501 51.5908 32.7598C49.711 31.8863 47.7693 31.1509 45.7812 30.5594C40.3964 41.1742 39.0349 58.3233 38.7082 67.9169Z" fill="#CCDDE2"/>
<path d="M97.1616 81.3233L95.4849 80.8616L95.7226 80.1364C95.7526 80.045 95.7825 79.9535 95.8142 79.8621L96.1823 78.8081L96.5857 79.8425C96.6191 79.9252 96.6526 80.0123 96.6843 80.0994L96.7812 80.3477L97.1616 81.3233Z" fill="#CCDDE2"/>
<path d="M87.101 120.727V119.418H87.898L87.346 119.064L87.9325 119.418L88.5294 119.051L88.7709 119.208L88.7778 119.654L87.101 120.727Z" fill="#CCDDE2"/>
<path d="M97.1616 81.3233L95.4849 80.8616L95.7226 80.1364C95.7526 80.045 95.7825 79.9535 95.8142 79.8621L96.1823 78.8081L96.5857 79.8425C96.6191 79.9252 96.6526 80.0123 96.6843 80.0994L96.7812 80.3477L97.1616 81.3233Z" fill="#CCDDE2"/>
<g opacity="0.9">
<path opacity="0.9" d="M96.1411 152.586C72.2416 152.55 49.3067 143.278 31.5888 126.478C29.7931 124.781 28.0534 123.009 26.4213 121.211L27.19 120.513C28.807 122.292 30.5273 124.045 32.3036 125.724C49.7718 142.288 72.3514 151.451 95.915 151.546C94.1452 140.285 91.4215 129.927 87.8129 120.757L87.4856 121.093V119.902C82.0081 106.253 74.4572 94.7881 65.0115 85.8118C57.2765 78.4724 48.1922 72.7018 38.2613 68.8194C20.4443 61.8132 4.65772 62.5065 1.78762 62.7068C1.82547 64.6766 2.00609 66.6411 2.32805 68.5847C4.91523 84.855 11.4356 100.247 21.3228 113.425C22.0247 114.368 22.789 115.344 23.5965 116.33L22.7977 116.989C21.9795 115.99 21.2044 115.001 20.4938 114.048C10.5049 100.735 3.918 85.1837 1.30533 68.7462C0.659394 64.7328 0.749825 62.3084 0.754131 62.2072L0.771356 61.7551L1.22136 61.7099C1.3936 61.6927 18.7843 60.0434 38.6424 67.8548C48.6987 71.7847 57.8972 77.6277 65.7285 85.0603C75.2969 94.1508 82.9533 105.76 88.4653 119.562L88.4847 119.605C88.5622 119.79 88.6375 119.975 88.7 120.173C92.4313 129.615 95.2304 140.294 97.0196 151.912V151.962C97.0217 151.994 97.0217 152.026 97.0196 152.059V152.547L96.5308 152.577C96.4081 152.584 96.2789 152.586 96.1411 152.586Z" fill="#CCDDE2"/>
</g>
<path d="M87.101 120.727V119.418H87.898L87.346 119.064L87.9325 119.418L88.5294 119.051L88.7709 119.208L88.7778 119.654L87.101 120.727Z" fill="#CCDDE2"/>
<g opacity="0.9">
<path opacity="0.9" d="M96.0141 152.58V152.052C96.0249 151.26 96.1756 144.028 98.3545 134.145C101.128 121.556 105.854 110.187 112.399 100.356C119.403 89.7468 128.807 80.9361 139.849 74.6372C140.213 74.4219 140.495 74.2648 140.79 74.1097C141.154 73.9052 141.514 73.7114 141.946 73.481C142.011 73.4423 142.08 73.4057 142.162 73.3691L142.278 73.3066C142.672 73.0913 143.06 72.8954 143.451 72.7016C143.652 72.5961 143.856 72.4863 144.067 72.3937C144.465 72.1784 144.883 71.9825 145.344 71.765C145.736 71.5734 146.145 71.3839 146.541 71.2009L146.616 71.1664L146.705 71.1255C146.965 71.0028 147.26 70.8715 147.624 70.7143C147.988 70.5571 148.412 70.3612 148.782 70.2062C149.883 69.7282 151.065 69.2502 152.294 68.7894L152.703 68.6344C153.237 68.4191 153.741 68.2447 154.238 68.0703C165.161 64.199 177.606 62.0459 191.192 61.7143L191.771 61.6992L191.724 62.2763C189.636 86.7808 178.805 109.509 161.251 126.273C143.587 143.138 120.603 152.476 96.5416 152.578L96.0141 152.58ZM190.639 62.7672C177.391 63.1504 165.247 65.2626 154.568 69.0499C154.077 69.22 153.584 69.4009 153.061 69.6033L152.647 69.7604C151.435 70.2169 150.268 70.6863 149.179 71.16C148.81 71.315 148.423 71.4808 148.037 71.6616C147.719 71.7994 147.42 71.9308 147.12 72.0707L147.051 72.103L146.967 72.1418C146.573 72.3248 146.169 72.51 145.781 72.6994C145.32 72.9148 144.92 73.1193 144.519 73.3217H144.5C144.302 73.4143 144.11 73.5133 143.919 73.6124C143.52 73.8104 143.137 74.0128 142.767 74.2066L142.629 74.2798C142.571 74.31 142.515 74.3401 142.461 74.3724H142.442C142.011 74.6028 141.654 74.803 141.29 75.0011C141.003 75.1561 140.719 75.3155 140.364 75.52C129.462 81.7444 120.179 90.4499 113.269 100.931C106.795 110.654 102.12 121.904 99.3729 134.369C97.4696 143.003 97.1316 149.578 97.0799 151.535C120.68 151.305 143.199 142.079 160.543 125.522C177.776 109.063 188.451 86.8066 190.639 62.7672Z" fill="#CCDDE2"/>
</g>
<path d="M95.9986 81.3232L95.4956 80.26C87.9378 64.2514 78.1767 51.3938 66.4767 42.0417L66.1414 41.7732L66.3435 41.393C73.5681 27.9297 85.6314 9.09224 95.8568 0.311451L96.2179 0L96.5575 0.335078C96.7316 0.504766 113.969 17.6711 125.484 41.6443L125.667 42.0266L125.329 42.2822C112.479 52.0232 102.757 64.7862 96.4457 80.2342L95.9986 81.3232ZM67.472 41.4982C78.8796 50.7344 88.4516 63.2548 95.9341 78.7672C102.267 63.7617 111.832 51.3014 124.373 41.713C113.84 19.9522 98.6254 3.91999 96.177 1.41335C86.2354 10.149 74.587 28.3099 67.472 41.4982Z" fill="#CCDDE2"/>
<path d="M29.8989 111.292C29.5499 112.386 29.1045 113.449 28.5676 114.469C28.4161 114.757 28.2645 115.038 28.0975 115.324C27.528 116.367 26.8278 117.337 26.0128 118.212C25.8678 118.167 25.725 118.109 25.5954 118.056C25.5646 118.056 25.5427 118.035 25.5185 118.028C22.8824 116.909 20.9053 114.819 20.3187 112.466C19.7937 110.394 20.2638 108.15 19.2533 106.201C18.0143 103.803 14.6533 102.299 14.2359 99.5908C13.8558 97.058 16.1976 94.7328 15.8175 92.2513C15.3782 89.4469 11.8392 87.7805 11.1867 85.0402C10.7672 83.3289 11.1406 81.3758 10.989 79.6196C10.8144 77.6582 10.4735 75.7142 9.96973 73.8075C10.2136 73.7925 10.4552 73.7861 10.6991 73.7797C15.6791 73.6963 20.5845 76.4216 22.197 80.2507C23.4953 83.346 22.834 86.9206 24.5607 89.8234C24.664 90.0115 24.7807 90.1924 24.91 90.3646C25.1365 90.6689 25.3808 90.9603 25.6415 91.2374L26.1885 91.7936C26.2786 91.8813 26.3774 91.9626 26.4697 92.0588C26.562 92.1551 26.6586 92.2385 26.7509 92.3348C27.6098 93.1327 28.4842 93.9413 29.0553 94.9018C29.1063 94.9851 29.1518 95.0716 29.1915 95.1606C29.2444 95.2482 29.2899 95.3397 29.3277 95.4344C29.3768 95.531 29.42 95.6303 29.4573 95.7317C29.5035 95.843 29.5408 95.9606 29.5782 96.0719C29.6331 96.2494 29.6858 96.4206 29.7231 96.5981C29.7231 96.643 29.7231 96.6794 29.7385 96.7158C29.7539 96.7521 29.7385 96.7457 29.7385 96.7607C29.7417 96.7755 29.7417 96.7908 29.7385 96.8056C29.7385 96.8356 29.7385 96.8569 29.7539 96.8783V96.8933C29.755 96.921 29.7602 96.9484 29.7693 96.9746C29.7693 97.0045 29.7693 97.0174 29.7693 97.0324C29.7721 97.0472 29.7721 97.0624 29.7693 97.0773V97.0922L29.1827 105.356C29.5562 107.352 30.492 109.345 29.8989 111.292Z" fill="white"/>
<path d="M34.0679 91.4914C34.4381 89.6934 34.468 87.8075 35.3112 86.0911C36.8819 82.9286 41.4741 80.6329 46.2825 80.4849H46.3703C46.7983 80.4849 47.2519 80.4849 47.697 80.5085C47.1998 82.1531 46.8594 83.8413 46.6805 85.5504C46.5179 87.0716 46.8945 88.7687 46.4815 90.2362C45.8075 92.6113 42.2145 94.0531 41.7737 96.4818C41.3885 98.6273 43.766 100.648 43.3744 102.839C42.9464 105.184 39.5439 106.486 38.2856 108.563C37.2713 110.25 37.7442 112.187 37.2157 113.979C36.6015 116.019 34.5879 117.84 31.913 118.797C31.7439 118.857 31.5877 118.915 31.4165 118.967C31.3266 118.99 31.2239 119.027 31.134 119.051C31.1041 119.027 31.0762 118.997 31.0377 118.967C30.1818 118.231 29.2145 116.991 28.4142 115.663L28.4741 114.817C28.9971 113.795 29.4309 112.729 29.7709 111.631C30.3487 109.679 29.4371 107.679 29.1032 105.675L29.6746 97.3872L29.8522 97.2392C29.9169 97.191 29.9783 97.1387 30.0362 97.0826C30.9179 96.3703 31.8659 95.688 32.5485 94.877C33.3916 93.8815 33.7854 92.7915 34.0465 91.6587" fill="white"/>
<path d="M34.2828 91.3198C34.2828 91.3654 34.2677 91.4024 34.2612 91.4415C34.0065 92.5998 33.6136 93.7038 32.7501 94.7013C32.0615 95.5227 31.1051 96.2225 30.2157 96.9353C30.1579 96.9927 30.0958 97.0458 30.0301 97.0939L29.8509 97.2526C29.8545 97.2427 29.8545 97.2319 29.8509 97.2221C29.8509 97.1917 29.8358 97.17 29.8293 97.1482C29.8258 97.1237 29.8258 97.0989 29.8293 97.0744V97.0591C29.8293 97.0374 29.8293 97.0157 29.8142 96.9853C29.8173 96.9702 29.8173 96.9547 29.8142 96.9396C29.8174 96.9324 29.819 96.9247 29.819 96.9168C29.819 96.9089 29.8174 96.9012 29.8142 96.894C29.8086 96.8537 29.8007 96.8138 29.7905 96.7745C29.7538 96.5941 29.7019 96.4202 29.648 96.2399C29.6113 96.1269 29.5746 96.0073 29.5292 95.8943C29.4926 95.7913 29.4501 95.6904 29.4019 95.5922C29.3693 95.4941 29.3243 95.4007 29.268 95.3141C29.229 95.2237 29.1843 95.1358 29.1342 95.0511C28.5729 94.0819 27.7137 93.2604 26.8696 92.4433C26.779 92.3455 26.6818 92.2478 26.5933 92.163C26.5048 92.0782 26.4055 91.9826 26.317 91.8935L25.7795 91.3285C25.5232 91.047 25.2832 90.751 25.0606 90.4419C25.0606 90.4419 25.5852 81.7492 29.9999 79.1218C34.149 76.6205 34.2828 89.8529 34.2828 91.3198Z" fill="white"/>
<path d="M44.3435 83C36.4213 91.4807 32.6955 109.359 31.2473 118.59C31.1291 119.368 31.0217 120.086 30.9293 120.727" fill="white"/>
<path d="M45.1818 125.762L41.5174 147.862C41.4304 148.467 41.1372 149.021 40.6897 149.425C40.2423 149.829 39.6695 150.058 39.0731 150.071H19.9837C19.3807 150.058 18.8022 149.824 18.3531 149.411C17.9039 148.999 17.6137 148.435 17.535 147.823L14.1616 125.758L45.1818 125.762Z" fill="white"/>
<path d="M48.5273 123.446C48.494 124.06 48.222 124.639 47.7657 125.067C47.3094 125.496 46.7023 125.742 46.0659 125.758H13.2789C12.6486 125.743 12.0467 125.501 11.5917 125.08C11.1366 124.659 10.8612 124.089 10.8196 123.481C10.6803 122.004 11.8209 120.727 13.2789 120.727H46.0659C47.5067 120.729 48.643 121.983 48.5273 123.446Z" fill="white"/>
<path d="M13.3232 77.1313C21.2353 86.9244 24.9488 107.549 26.4132 118.2C26.5384 119.124 26.6502 119.969 26.7374 120.727" fill="white"/>
<path d="M30.0909 87.1919C29.2313 90.2722 29.1906 93.3841 29.2915 95.3533C29.3201 95.9896 29.3784 96.6236 29.4661 97.2525" fill="white"/>
<path d="M29.2717 98.091L29.2547 96.8933V96.8533C29.2519 96.8102 29.2519 96.7668 29.2547 96.7236L29.5064 96.7016L29.3941 96.5739L29.5098 96.7016L29.6798 96.6877V96.4142H30.0896V96.7974C30.0914 96.83 30.0914 96.8627 30.0896 96.8953V97.0949L29.2717 98.091Z" fill="#CCDDE2"/>
<path d="M26.5586 119.051L26.2541 118.955C26.1074 118.909 25.9633 118.856 25.8221 118.795L25.7358 118.76H25.7142C22.9475 117.549 20.9239 115.31 20.3148 112.769C20.1251 111.889 20.018 110.993 19.9952 110.093C19.9218 108.822 19.8548 107.62 19.3084 106.537C18.8333 105.592 18.0126 104.784 17.1336 103.937C15.8809 102.715 14.5894 101.452 14.3259 99.6892C14.1099 98.2639 14.6391 96.9468 15.1401 95.6709C15.6066 94.4882 16.0472 93.3726 15.8809 92.2592C15.6844 90.9443 14.7255 89.8764 13.7082 88.737C12.691 87.5976 11.6781 86.4668 11.3325 84.9981C11.069 83.8956 11.1165 82.7128 11.1403 81.5691C11.1751 80.8581 11.1708 80.1458 11.1273 79.4354C10.9579 77.4783 10.627 75.5387 10.1382 73.6365L9.96973 73.0105L10.6004 72.9715C10.8379 72.9563 11.0755 72.9477 11.3152 72.9412H11.3412C16.5245 72.8588 21.4703 75.7572 23.1354 79.8166C23.7358 81.2918 23.9281 82.8493 24.1138 84.3656C24.3298 86.1917 24.5457 87.9182 25.4291 89.441L25.4399 89.4626C25.5313 89.631 25.6337 89.7931 25.7466 89.9479C25.957 90.2403 26.1841 90.5202 26.4269 90.7862L26.9538 91.3364L27.0446 91.4231C27.105 91.4794 27.1633 91.5357 27.2217 91.5963C27.3145 91.683 27.4117 91.7805 27.5024 91.8779L27.5305 91.9061C28.3793 92.7206 29.2583 93.5611 29.8457 94.577C29.9014 94.6709 29.9518 94.7678 29.9969 94.8673C30.0521 94.9641 30.1005 95.0647 30.1416 95.1684C30.1978 95.2854 30.2388 95.385 30.2755 95.4868C30.3122 95.5886 30.3511 95.7034 30.3857 95.7987L30.4245 95.9222C30.4742 96.0912 30.5239 96.2645 30.5628 96.4508C30.5628 96.5049 30.5757 96.5374 30.58 96.5677V96.6219C30.5859 96.6483 30.5903 96.6751 30.593 96.702L30.6103 96.754V96.8038L30.6254 96.8515V96.9035C30.6357 96.9497 30.6408 96.9969 30.6405 97.0443V97.0963L30.0703 105.401C30.161 105.932 30.2863 106.485 30.4289 107.009C30.796 108.497 31.1783 110.041 30.7183 111.588C30.3669 112.726 29.9174 113.832 29.3749 114.891C29.254 115.128 29.1114 115.403 28.943 115.686L28.8933 115.78C28.3857 116.687 27.5974 117.946 26.7616 118.812L26.5586 119.051ZM26.1547 117.801L26.2303 117.831L26.2671 117.846C26.9034 117.087 27.4633 116.266 27.9387 115.396L28.0078 115.266C28.1784 114.972 28.3318 114.677 28.4592 114.428C28.972 113.424 29.3976 112.377 29.7313 111.3C30.1092 110.02 29.7788 108.683 29.4289 107.269C29.2885 106.701 29.1417 106.112 29.0445 105.523V105.462L29.619 97.1006V97.0508C29.6179 97.0422 29.6179 97.0334 29.619 97.0248C29.6102 96.9856 29.6044 96.9458 29.6017 96.9057C29.6017 96.9057 29.6017 96.8927 29.6017 96.8862L29.5822 96.8428V96.7714C29.5822 96.7714 29.5822 96.7562 29.5822 96.7475C29.5822 96.7389 29.5822 96.6955 29.5822 96.6695V96.6457C29.5563 96.5201 29.5131 96.3749 29.4678 96.2125L29.4375 96.1193C29.4095 96.037 29.3835 95.9504 29.3511 95.8702C29.3188 95.7901 29.282 95.6904 29.241 95.6103L29.2194 95.5605C29.1919 95.491 29.1595 95.4237 29.1222 95.359L29.092 95.3005C29.0619 95.2301 29.0265 95.162 28.9862 95.0969C28.4721 94.2088 27.6493 93.4203 26.8523 92.6556L26.7897 92.595C26.7098 92.5083 26.6234 92.4217 26.5435 92.348L26.5133 92.3177C26.4679 92.27 26.4204 92.2245 26.375 92.1812L26.2498 92.0621L25.7055 91.4924C25.4308 91.1937 25.1747 90.8783 24.9388 90.5479C24.7995 90.3579 24.6739 90.1581 24.563 89.95C23.5803 88.2431 23.3471 86.3347 23.1203 84.4869C22.9432 83.0421 22.7618 81.5474 22.2132 80.2022C20.7122 76.6345 16.1768 73.9939 11.5658 73.9939H11.2958C11.7147 75.7522 12.0035 77.5391 12.1597 79.3401C12.2076 80.0908 12.2133 80.8437 12.177 81.5951C12.1424 82.6782 12.11 83.7829 12.3411 84.7534C12.6219 85.9643 13.5225 86.9694 14.4749 88.0351C15.5548 89.2352 16.6584 90.4743 16.9025 92.1011C17.1184 93.4896 16.5958 94.7915 16.099 96.0522C15.6261 97.2501 15.1812 98.383 15.3475 99.5332C15.5634 100.946 16.6735 102.033 17.8527 103.185C18.7512 104.052 19.6799 104.968 20.2284 106.069C20.8764 107.345 20.9498 108.714 21.0254 110.035C21.0455 110.871 21.1431 111.704 21.3169 112.522C21.8612 114.746 23.6559 116.72 26.1223 117.803L26.1547 117.801Z" fill="#CCDDE2"/>
<path d="M30.7774 119.051L30.5738 118.901L30.4971 118.837L30.4293 118.779C29.5423 118.037 28.5306 116.799 27.6525 115.38L27.5758 115.258V115.07L27.6437 114.125L27.6919 114.033C28.2135 113.044 28.6458 112.012 28.9839 110.949C29.3672 109.688 29.0321 108.374 28.6773 106.98C28.535 106.419 28.3861 105.838 28.2875 105.258V105.198L28.8766 96.8132V96.4226H29.2095L29.2467 96.3928L29.3015 96.3501C29.3304 96.3304 29.3575 96.3083 29.3825 96.2839L29.4372 96.237C29.6321 96.0833 29.8139 95.9425 29.9957 95.8102C30.7032 95.3047 31.3582 94.7329 31.9512 94.1029C32.6697 93.2372 33.1546 92.2101 33.3615 91.1151L34.393 91.3286C34.1514 92.589 33.5881 93.7699 32.7549 94.7623C32.1171 95.4447 31.4114 96.0638 30.6482 96.6104C30.4709 96.7492 30.2913 96.8857 30.1161 97.0245L30.092 97.0458C30.0504 97.0821 30 97.1269 29.9409 97.1696V97.4492H29.8993L29.354 105.16C29.446 105.683 29.573 106.227 29.7175 106.743C30.0898 108.209 30.4774 109.731 30.011 111.255C29.6665 112.344 29.2269 113.402 28.697 114.417L28.6554 115C29.3109 116.076 30.1115 117.062 31.0359 117.93H31.0665H31.0928C31.1913 117.9 31.2855 117.866 31.3819 117.832L31.5373 117.779C34.1039 116.884 36.0573 115.177 36.6333 113.323C36.8086 112.643 36.9077 111.947 36.9289 111.246C37.0077 110.109 37.0888 108.931 37.7764 107.832C38.3677 106.882 39.3509 106.109 40.3014 105.36C41.5365 104.389 42.7103 103.474 42.9183 102.311C43.0891 101.38 42.627 100.435 42.1387 99.4339C41.6043 98.3433 41.0547 97.2165 41.2802 95.9873C41.543 94.566 42.7278 93.5011 43.8709 92.4724C44.8695 91.574 45.8134 90.7267 46.1046 89.7258C46.3346 88.9384 46.3017 88.057 46.2689 87.1244C46.2287 86.4666 46.2368 85.8069 46.2929 85.1503C46.4558 83.6387 46.7488 82.1431 47.1689 80.6794C46.9368 80.6794 46.7178 80.6794 46.5119 80.6794H46.3959C41.6635 80.8224 37.1347 83.0482 35.6412 85.972C35.0719 87.0988 34.8879 88.3045 34.693 89.5829C34.612 90.1185 34.5288 90.6734 34.4127 91.2176L33.9134 91.1151H33.3681L33.3791 91.0042C33.4886 90.4877 33.5696 89.9499 33.6484 89.4271C33.8477 88.1274 34.0514 86.7829 34.6952 85.511C36.3792 82.2138 41.1839 79.8023 46.3783 79.6465H46.4857C46.8886 79.6465 47.3769 79.6465 47.8784 79.67L48.5354 79.7126L48.3471 80.3315C47.8489 81.9327 47.5072 83.5761 47.3266 85.24C47.2766 85.8492 47.2708 86.461 47.3091 87.071C47.3441 88.042 47.3791 89.0472 47.1054 89.9905C46.7309 91.2709 45.6338 92.2569 44.5717 93.2108C43.5096 94.1648 42.5044 95.0718 42.3029 96.1537C42.1365 97.0565 42.592 97.9869 43.076 98.975C43.6147 100.078 44.1709 101.218 43.9519 102.475C43.6672 104.016 42.292 105.098 40.9605 106.143C40.0846 106.837 39.1714 107.552 38.6764 108.346C38.1202 109.242 38.0523 110.247 37.9779 111.31C37.9497 112.08 37.8351 112.845 37.6362 113.591C36.9552 115.787 34.8025 117.706 31.879 118.713L31.7301 118.765C31.603 118.809 31.4804 118.852 31.3468 118.89L31.257 118.914L31.1957 118.931L31.0271 118.978L30.7774 119.051Z" fill="#CCDDE2"/>
<path d="M28.9452 98.0909V97.2619H28.9008V96.7627L28.8248 96.6021L28.8649 96.5174C28.8354 96.3807 28.7952 96.2418 28.7551 96.0834L28.7255 95.99C28.6981 95.9076 28.6727 95.8207 28.641 95.7404C28.6094 95.6601 28.5734 95.5603 28.5333 95.48L28.5037 95.4084C28.4871 95.3544 28.4629 95.3032 28.4319 95.2564L28.3876 95.1696C28.3581 95.099 28.3235 95.0308 28.2841 94.9656C27.7814 94.0758 26.9766 93.2858 26.1972 92.5196L26.1359 92.4589C26.0578 92.372 25.9733 92.2852 25.8951 92.2114L25.8656 92.1811C25.8212 92.1333 25.7747 92.0877 25.7304 92.0443L25.6079 91.9249L25.0756 91.3541C24.8069 91.0549 24.5565 90.7389 24.3257 90.4079L24.2222 90.2581V90.0736C24.3464 88.4593 24.6187 86.8606 25.0354 85.2988C25.9585 81.8501 27.3927 79.5105 29.3022 78.3537C30.259 77.7699 30.992 77.9587 31.4419 78.2213C32.6522 78.9267 33.4633 81.0948 33.9216 84.8474C34.1552 86.8861 34.2758 88.9368 34.2828 90.9895V91.0807C34.2828 91.1284 34.268 91.1675 34.2596 91.2065V91.2304C34.0266 92.5123 33.4832 93.7132 32.6796 94.7225C32.0644 95.4165 31.3838 96.0461 30.6477 96.6021C30.4766 96.7431 30.3034 96.8821 30.1344 97.0231L30.1112 97.0448C30.0586 97.0947 30.0036 97.1418 29.9464 97.1859L28.9452 98.0909ZM29.4564 95.0524C29.5092 95.1675 29.5493 95.2695 29.5831 95.3628C29.6169 95.4561 29.657 95.5798 29.6908 95.6753L29.7288 95.799L29.7795 95.9792L30.0161 95.7882C30.6986 95.2742 31.3303 94.6926 31.9023 94.0519C32.5954 93.1715 33.063 92.127 33.2626 91.0134C33.2626 90.996 33.2626 90.9787 33.2626 90.9591C33.2626 85.9109 32.5318 80.0704 30.9392 79.1394C30.7385 79.0222 30.4048 78.9071 29.8218 79.2631C26.1211 81.5224 25.3565 88.7215 25.253 89.9673C25.403 90.1843 25.5804 90.4014 25.8106 90.6553L26.326 91.2065L26.4147 91.2934C26.4739 91.3498 26.5309 91.4062 26.5879 91.467C26.6788 91.5538 26.7738 91.6515 26.8625 91.7491L26.89 91.7774C27.7201 92.5934 28.5798 93.4355 29.1543 94.4534C29.2066 94.5432 29.2539 94.6359 29.2958 94.7312C29.3617 94.832 29.4169 94.9397 29.4606 95.0524H29.4564Z" fill="#CCDDE2"/>
<path d="M29.6558 97.2526H29.2547V96.8316V96.7969C29.2519 96.7592 29.2519 96.7214 29.2547 96.6838L29.6813 96.6525V96.4142H30.0909V96.8403H29.6813L29.6558 97.2526Z" fill="#CCDDE2"/>
<path d="M31.9501 120.727L30.9293 120.583C31.0192 119.934 31.1262 119.209 31.246 118.422L31.3209 117.979C34.8841 95.351 41.0538 85.8343 44.4264 82.1616L45.1818 82.8702C41.867 86.4825 35.7807 95.9084 32.2711 118.578L32.1984 119.01C32.107 119.629 32.0243 120.202 31.9501 120.727Z" fill="#CCDDE2"/>
<path d="M39.3865 150.071H20.512C19.7936 150.06 19.1028 149.794 18.5657 149.319C18.0286 148.845 17.6809 148.195 17.586 147.487L14.1616 125.758H46.0202L42.3062 147.532C42.2009 148.23 41.8497 148.868 41.315 149.333C40.7804 149.798 40.097 150.059 39.3865 150.071ZM15.3606 126.777L18.5997 147.32C18.6578 147.788 18.8835 148.22 19.2354 148.536C19.5873 148.852 20.0419 149.032 20.5163 149.042H39.3908C39.8605 149.032 40.3113 148.857 40.6625 148.546C41.0137 148.236 41.2423 147.812 41.3074 147.35L44.8191 126.771L15.3606 126.777Z" fill="#CCDDE2"/>
<path d="M46.4024 126.596H13.7807C13.0249 126.584 12.3015 126.304 11.7535 125.812C11.2056 125.321 10.8731 124.652 10.8219 123.94C10.7809 123.523 10.8317 123.104 10.9713 122.707C11.1108 122.31 11.3359 121.945 11.6325 121.634C11.9029 121.349 12.234 121.12 12.6042 120.964C12.9743 120.808 13.3752 120.727 13.7807 120.727H46.4024C46.8042 120.728 47.2015 120.807 47.5688 120.961C47.9362 121.115 48.2655 121.339 48.5356 121.62C48.8321 121.925 49.0587 122.285 49.2011 122.677C49.3436 123.069 49.3988 123.484 49.3633 123.897C49.246 125.407 47.9383 126.596 46.4024 126.596ZM13.7807 121.699C13.5183 121.699 13.2589 121.752 13.0196 121.854C12.7803 121.956 12.5664 122.104 12.3919 122.289C12.1911 122.499 12.0389 122.747 11.9448 123.016C11.8508 123.285 11.8171 123.569 11.8458 123.851C11.8745 124.322 12.0893 124.765 12.4476 125.094C12.8059 125.422 13.2816 125.612 13.7807 125.625H46.4024C47.405 125.625 48.2562 124.833 48.3372 123.823C48.3617 123.543 48.3249 123.262 48.2291 122.996C48.1333 122.731 47.9806 122.486 47.7805 122.279C47.6063 122.097 47.3937 121.951 47.1564 121.851C46.919 121.751 46.6622 121.699 46.4024 121.699H13.7807Z" fill="#CCDDE2"/>
<path d="M29.268 97.2526C29.268 97.2526 29.268 97.1395 29.2526 96.9606L30.0515 96.4142C30.0775 96.6299 30.0908 96.8557 30.0909 97.083L29.268 97.2526ZM29.268 97.083C29.2667 97.1001 29.2667 97.1177 29.268 97.1348L29.3229 97.083H29.268Z" fill="#CCDDE2"/>
<path d="M25.7383 120.727C25.6548 119.946 25.5484 119.077 25.4358 118.18C22.1235 91.978 16.4291 81.0867 13.3232 76.9255L14.12 76.293C21.4977 86.1773 25.002 106.697 26.4329 118.051C26.5455 118.952 26.6519 119.828 26.7374 120.615L25.7383 120.727Z" fill="#CCDDE2"/>
<path d="M29.4633 97.2525C29.3758 96.6178 29.3182 95.9778 29.2907 95.3355C29.1886 93.2996 29.2424 90.2314 30.0757 87.1919L30.9293 87.5198C30.1388 90.4075 30.0887 93.3326 30.187 95.2782C30.2115 95.8764 30.2648 96.4723 30.3466 97.0632L29.4633 97.2525Z" fill="#CCDDE2"/>
<path d="M96.714 154.263L95.6777 152.337L95.6625 152.249C93.8826 140.722 91.0989 130.111 87.3872 120.703L87.101 120.919V119.817C87.7514 105.494 90.4875 92.2902 95.2181 80.5707L95.2983 80.372L95.385 80.1559C101.822 64.4413 111.741 51.4492 124.87 41.5404C136.846 32.5088 147.24 29.4665 147.344 29.4406L147.676 29.3434L147.892 29.6113C153.451 36.4433 154.739 56.8595 155.01 68.4213V68.7994L154.65 68.9247C154.158 69.0954 153.662 69.2769 153.133 69.48L152.716 69.6377C151.496 70.0958 150.321 70.5668 149.224 71.0422C148.853 71.1977 148.463 71.3641 148.075 71.5456C147.754 71.6839 147.452 71.8157 147.151 71.9561L147.082 71.9886L146.997 72.0274C146.6 72.2111 146.193 72.3969 145.802 72.587C145.339 72.8031 144.935 73.0084 144.532 73.2115H144.513C144.313 73.3044 144.12 73.4038 143.927 73.5032C143.526 73.702 143.14 73.9051 142.767 74.0995L142.629 74.173C142.57 74.2032 142.514 74.2335 142.459 74.2659H142.44C142.006 74.4971 141.646 74.698 141.28 74.8968C140.992 75.0524 140.705 75.2123 140.348 75.4175C129.368 81.6672 120.02 90.4078 113.063 100.931C106.544 110.688 101.837 121.978 99.0707 134.486C96.9027 144.302 96.7509 151.46 96.7401 152.245L96.714 154.263ZM88.3888 120.394C91.6409 128.635 94.1774 137.794 95.9596 147.675C96.3722 143.163 97.0746 138.683 98.0626 134.261C100.855 121.628 105.614 110.219 112.205 100.354C119.252 89.7093 128.715 80.8678 139.827 74.5446C140.194 74.3285 140.478 74.1708 140.775 74.0153C141.141 73.81 141.503 73.6155 141.937 73.3843C142.004 73.3454 142.073 73.3087 142.154 73.272L142.271 73.2093C142.668 72.9933 143.058 72.7966 143.452 72.6022C143.654 72.4963 143.86 72.3861 144.072 72.2932C144.473 72.0771 144.894 71.8805 145.358 71.6623C145.753 71.47 146.165 71.2799 146.563 71.0962L146.639 71.0616L146.728 71.0206C146.991 70.8974 147.288 70.7656 147.654 70.6079C148.02 70.4501 148.447 70.2535 148.82 70.098C149.928 69.6183 151.118 69.1386 152.356 68.6762L152.768 68.5207C153.178 68.3629 153.571 68.2182 153.954 68.0885C153.672 56.7558 152.419 37.3422 147.292 30.562C143.55 31.7072 134.661 35.484 125.497 42.396C112.584 52.1428 102.811 64.9167 96.4452 80.359L96.4647 80.4044L96.584 80.6507L97.0523 81.6186L96.0268 81.4026C91.5628 92.6057 88.933 105.17 88.2045 118.782L89.1064 118.084L88.3888 120.394Z" fill="#CCDDE2"/>
<path d="M155.364 147.766C153.778 147.451 152.221 147.076 150.702 146.636C144.463 144.834 137.206 141.753 134.725 135.278C134.103 133.605 133.907 131.807 134.154 130.041C134.402 128.276 135.085 126.598 136.143 125.156C137.267 123.618 138.846 122.462 140.661 121.847C144.609 120.585 148.976 122.551 151.904 125.464C154.832 128.377 156.717 132.118 159.004 135.537C156.932 130.943 154.826 126.22 154.54 121.196C154.325 117.281 155.4 113.038 158.124 110.095C160.635 107.389 166.514 105.267 169.97 107.257C172.252 108.57 173.16 111.361 173.554 113.942C174.63 121.004 173.248 128.181 171.874 135.193C172.797 131.443 173.788 127.66 175.667 124.279C177.545 120.898 180.43 117.908 184.119 116.657C186.701 115.781 189.773 115.876 191.94 117.525C193.96 119.066 194.861 121.666 195.139 124.173C195.604 128.375 194.603 132.639 192.882 136.514C186.46 150.949 168.657 150.402 155.364 147.766Z" fill="white"/>
<path d="M169.263 140.631C169.263 140.631 179.177 143.299 182.677 129.949L169.263 140.631Z" fill="white"/>
<path d="M165.071 117.374C163.184 123.662 165.071 142.525 165.071 142.525V117.374Z" fill="white"/>
<path d="M155.848 140.01C155.438 139.942 151.495 139.407 148.133 137.908C145.53 136.747 143.273 135.006 143.273 132.465" fill="white"/>
<path d="M149.141 132.465C149.141 132.465 145.868 137.158 148.469 138.333L149.141 132.465Z" fill="white"/>
<path d="M146.626 142.525C147.151 141.622 149.877 143.434 151.657 139.172L146.626 142.525Z" fill="white"/>
<path d="M164.232 125.758C163.184 125.024 160.432 125.758 160.04 119.889L164.232 125.758Z" fill="white"/>
<path d="M164.232 130.788C164.232 130.788 168.424 129.466 168.424 126.596L164.232 130.788Z" fill="white"/>
<path d="M173.455 140.848C173.455 140.848 175.832 135.049 176.808 132.465L173.455 140.848Z" fill="white"/>
<path d="M180.162 135.253C180.162 135.253 182.838 137.089 186.03 134.141L180.162 135.253Z" fill="white"/>
<path d="M180.162 132.465C180.162 132.465 178.897 131.846 179.474 128.273L180.162 132.465Z" fill="white"/>
<path d="M167.697 149.231C163.162 149.231 158.687 148.74 154.903 148.231C153.454 148 152.025 147.658 150.628 147.209L150.178 147.078C144.476 145.414 136.586 142.386 133.911 135.333C133.266 133.568 133.063 131.671 133.321 129.81C133.579 127.948 134.29 126.178 135.391 124.654C136.576 123.021 138.237 121.792 140.147 121.137C142.091 120.512 144.276 120.597 146.469 121.388C148.509 122.15 150.357 123.35 151.883 124.902C153.31 126.385 154.576 128.013 155.663 129.76C154.622 126.963 153.803 124.018 153.631 121C153.378 116.502 154.73 112.289 157.34 109.447C158.672 108 160.837 106.747 163.132 106.1C165.725 105.367 168.091 105.506 169.782 106.494C171.813 107.674 173.064 109.996 173.606 113.592C174.263 117.95 174.02 122.304 173.426 126.607C173.813 125.654 174.255 124.725 174.75 123.823C176.895 119.908 179.999 117.098 183.463 115.911C186.466 114.883 189.641 115.247 191.743 116.864C194.103 118.683 194.89 121.698 195.132 123.909C195.576 127.978 194.785 132.362 192.837 136.597C189.892 143.007 184.295 147.018 176.2 148.522C173.393 149.016 170.547 149.253 167.697 149.231ZM155.041 147.207C161.143 148.029 169.042 148.805 176.022 147.509C183.877 146.05 189.073 142.341 191.908 136.157C193.777 132.088 194.54 127.892 194.116 124.011C193.901 122.002 193.195 119.27 191.113 117.674C189.285 116.267 186.481 115.96 183.8 116.879C180.582 117.982 177.688 120.621 175.648 124.311C173.851 127.582 172.894 131.165 171.916 135.17L170.906 134.956C172.253 128.017 173.647 120.842 172.577 113.752C172.085 110.486 170.998 108.398 169.256 107.393C166.703 105.913 161.154 106.813 158.084 110.152C155.663 112.789 154.408 116.725 154.652 120.949C154.935 125.975 157.031 130.666 159.06 135.202L158.157 135.699C157.514 134.725 156.89 133.714 156.287 132.735C154.766 130.259 153.194 127.7 151.139 125.637C148.728 123.204 144.476 120.827 140.475 122.12C138.77 122.707 137.287 123.807 136.232 125.269C135.231 126.652 134.585 128.26 134.351 129.95C134.116 131.641 134.299 133.363 134.885 134.967C137.399 141.589 144.986 144.485 150.476 146.087L150.928 146.22C152.275 146.652 153.653 146.982 155.049 147.207H155.041Z" fill="#CCDDE2"/>
<path d="M171.483 141.686C170.735 141.696 169.989 141.614 169.263 141.442L169.544 140.455C171.845 140.924 174.242 140.553 176.279 139.412C179.195 137.758 181.286 134.574 182.495 129.949L183.515 130.2C182.233 135.114 179.969 138.513 176.79 140.307C175.177 141.215 173.346 141.691 171.483 141.686Z" fill="#CCDDE2"/>
<path d="M164.766 142.525C164.766 142.48 163.992 137.781 163.611 132.382C163.095 125.082 163.5 120.035 164.809 117.374L165.866 117.79C162.901 123.793 165.878 142.184 165.909 142.369L164.766 142.525Z" fill="#CCDDE2"/>
<path d="M155.672 140.848L155.548 140.829C152.539 140.357 149.821 139.588 147.689 138.625C144.208 137.031 142.434 134.959 142.434 132.465H143.483C143.483 134.515 145.045 136.269 148.126 137.676C150.143 138.599 152.839 139.357 155.714 139.809L155.848 139.831L155.672 140.848Z" fill="#CCDDE2"/>
<path d="M147.95 138.333C147.103 138.006 146.798 137.419 146.69 136.986C146.25 135.215 148.229 132.742 148.457 132.465L149.141 133.077C148.608 133.725 147.288 135.648 147.561 136.75C147.614 136.954 147.748 137.249 148.264 137.452L147.95 138.333Z" fill="#CCDDE2"/>
<path d="M146.682 142.525C146.691 142.521 146.699 142.514 146.706 142.506L145.788 141.908C146.139 141.467 146.766 141.448 147.427 141.429C148.618 141.393 150.252 141.345 151.493 139.172L152.495 139.642C150.95 142.347 148.768 142.411 147.464 142.451C147.201 142.443 146.938 142.468 146.682 142.525Z" fill="#CCDDE2"/>
<path d="M163.568 125.758C163.355 125.646 163.124 125.561 162.883 125.508C161.188 125.034 159.508 124.213 159.202 119.949L160.3 119.889C160.583 123.853 162.044 124.263 163.217 124.591C163.579 124.673 163.922 124.808 164.232 124.99L163.568 125.758Z" fill="#CCDDE2"/>
<path d="M164.589 131.626L164.235 130.714L164.411 131.17L164.232 130.714C164.274 130.702 168.214 129.346 168.214 126.596H169.263C169.263 130.019 164.78 131.552 164.589 131.626Z" fill="#CCDDE2"/>
<path d="M174.437 140.848L173.455 140.488C173.476 140.432 175.734 134.906 176.653 132.465L177.646 132.801C176.723 135.254 174.461 140.792 174.437 140.848Z" fill="#CCDDE2"/>
<path d="M182.349 136.656C181.568 136.659 180.804 136.425 180.162 135.986L180.784 135.211L180.473 135.599L180.78 135.209C180.863 135.273 182.841 136.728 185.302 134.141L186.03 134.82C184.672 136.253 183.374 136.656 182.349 136.656Z" fill="#CCDDE2"/>
<path d="M180.596 133.303C180.408 133.206 178.777 132.21 179.513 127.434L180.471 127.647C179.878 131.483 180.988 132.239 181 132.239L180.798 132.764L180.596 133.303Z" fill="#CCDDE2"/>
<path d="M161.2 121.361C161.751 119.541 161.864 117.619 161.529 115.748C161.35 114.671 160.841 111.738 159.269 112.192C158.813 112.319 158.542 112.707 158.371 113.146C158.573 112.177 157.165 111.565 156.477 111.477C154.734 111.231 153.46 112.453 152.629 113.943C150.81 117.217 145.974 118.798 142.605 118.804C137.866 118.804 135.035 115.143 134.222 110.404C132.059 97.8735 131.482 67.688 108.814 59.4131C107.568 58.9542 106.296 58.573 105.003 58.2716V58.3082C104.988 58.3082 104.973 58.3082 104.957 58.2565C104.948 58.2278 104.94 58.1982 104.936 58.1682C105.653 58.0626 106.362 57.9151 107.062 57.7267C107.968 57.4962 108.902 57.227 109.562 56.6498C110.356 55.9649 110.624 54.9591 110.691 53.9963C110.691 53.8477 110.706 53.6905 110.706 53.5419C110.714 53.4207 110.714 53.2991 110.706 53.1779C110.706 53.0056 110.706 52.8333 110.706 52.6545C110.706 52.521 110.706 52.3788 110.706 52.2453L111.809 48.7389C112.214 47.9549 112.616 47.1688 112.793 46.3331C112.867 45.9966 112.9 45.6523 112.89 45.3079C112.89 45.2347 112.89 45.1593 112.89 45.0774C112.808 43.6236 112.097 42.1849 111.102 40.9852C110.92 39.3943 110.607 37.821 110.165 36.2813C108.773 31.2414 105.989 25.7622 100.554 24.2416C96.5399 23.1238 91.8619 23.1905 87.917 24.6896C87.9135 24.691 87.9099 24.6917 87.9062 24.6917C87.9024 24.6917 87.8988 24.691 87.8953 24.6896L87.5233 24.8425L87.8953 24.6896C87.6387 24.7655 87.3908 24.868 87.1557 24.9954C85.8688 25.6889 85.4255 27.2763 85.4947 29.0209C85.4943 29.1182 85.5016 29.2154 85.5163 29.3116C85.5163 29.4387 85.5314 29.5722 85.5531 29.6993C85.7477 31.4073 86.3922 33.1648 87.2011 34.2998C87.1643 34.3881 87.1254 34.47 87.0951 34.5604C86.7533 35.3424 86.3106 36.0766 85.778 36.7444C84.5885 38.252 82.9794 39.3526 81.8179 40.8603C80.6565 42.368 79.9774 44.3322 80.2845 46.219C80.583 48.0454 81.7358 49.6413 81.9975 51.4591C82.244 53.1219 81.7812 55.0237 82.7998 56.359C83.427 57.171 84.4673 57.5436 85.4644 57.8258C85.8969 57.9464 86.3295 58.0412 86.762 58.1402C86.708 58.2953 86.6928 58.3039 86.6626 58.3104C85.4214 58.6009 84.1993 58.967 83.0031 59.4067L82.8236 59.4734C60.3416 67.8496 59.7512 97.9015 57.6014 110.394C56.7947 115.132 53.9571 118.793 49.2185 118.793C45.8489 118.793 41.0129 117.206 39.194 113.932C38.3549 112.442 37.0918 111.221 35.3465 111.466C34.6652 111.563 33.3329 112.13 33.4605 113.053C33.4575 113.088 33.4575 113.122 33.4605 113.157V113.193C33.4605 113.193 33.4605 113.217 33.4605 113.224V113.247C33.2962 112.769 33.028 112.345 32.5392 112.203C30.9669 111.748 30.4586 114.677 30.2791 115.759C29.9446 117.629 30.0572 119.552 30.6078 121.371C31.3345 123.779 32.8528 126.032 35.1064 127.008C36.967 127.768 38.911 128.308 40.8983 128.615C37.905 131.516 35.965 135.281 36.0559 140.097C36.1229 143.112 37.9504 145.218 40.801 146.627C44.4539 148.445 49.7851 149.123 55.205 149.175H55.2353C54.6182 149.291 54.0156 149.474 53.4381 149.72C52.7727 149.996 52.1466 150.358 51.5759 150.797C51.3726 150.955 51.178 151.118 50.992 151.288C50.8942 151.372 50.801 151.462 50.713 151.557C50.5356 151.736 50.3626 151.923 50.1982 152.117C49.8795 152.5 49.5903 152.906 49.3331 153.332C49.2055 153.547 49.0866 153.762 48.9827 153.978C48.8789 154.193 48.7794 154.434 48.6886 154.656C48.5486 154.997 48.4365 155.349 48.3534 155.707C48.2928 155.94 48.2409 156.17 48.1955 156.41C47.8062 158.705 48.3382 161.077 49.969 162.783C50.2662 163.091 50.5897 163.372 50.9357 163.625C51.1152 163.752 51.3034 163.872 51.4959 163.991C51.9036 164.23 52.3321 164.432 52.7762 164.594C53.2641 164.775 53.7652 164.919 54.275 165.025C57.8609 165.746 60.7115 163.429 63.947 162.44C65.7918 161.897 67.7123 161.653 69.6351 161.716C70.8885 161.754 72.1379 161.877 73.3745 162.085C86.9517 164.297 100.729 165.042 114.467 164.307C123.75 163.799 133.218 162.638 142.03 159.543C148.661 157.213 155.958 153.118 159.224 146.793C160.382 144.566 160.981 142.092 160.969 139.584C160.969 134.314 158.806 130.385 155.437 127.486C155.869 127.329 156.289 127.172 156.702 126.993C158.955 126.022 160.474 123.769 161.2 121.361Z" fill="white"/>
<path d="M69.495 161.761C67.6249 161.696 65.7566 161.937 63.9622 162.473C60.8194 163.45 58.0467 165.74 54.5593 165.026C45.4801 163.173 47.3741 150.925 55.5115 149.364H55.5241C56.304 149.347 57.0839 149.34 57.8575 149.34H57.908C61.6561 149.34 65.3075 149.44 68.3052 148.394C68.0151 148.653 60.7164 155.209 69.495 161.761Z" fill="#FFCA64"/>
<path d="M112.187 69.5859V69.5673C110.576 66.4279 109.206 63.1801 108.088 59.8499L108.062 59.7465C108.06 59.7217 108.06 59.6968 108.062 59.6721H108.561L109.057 59.5253V59.5377C110.157 62.817 111.505 66.0151 113.091 69.1062L112.187 69.5859Z" fill="black"/>
<path d="M119.798 119.209C109.476 120.849 99.4647 123.363 88.9349 122.026C83.2319 121.294 77.6403 119.837 72.0101 118.699C75.5172 113.074 76.8755 105.83 76.327 99.5264C75.9714 95.3857 74.0647 91.3794 74.1611 87.2558C74.2275 84.4625 74.7459 81.6821 75.4658 78.9913C76.313 75.8221 77.4638 72.7414 78.9022 69.7915C78.9022 69.7787 78.9172 69.7702 78.9236 69.7552C80.5119 66.5447 81.8652 63.2239 82.9727 59.8187C84.2027 59.3621 85.4607 58.9841 86.739 58.6869L86.9532 60.2309C87.4802 63.8612 88.7185 69.1018 92.5234 70.8166C93.3117 71.161 94.1629 71.3391 95.0236 71.3398C96.7203 71.5106 98.9912 70.8166 98.9912 70.8166C102.794 69.1082 104.026 63.8676 104.561 60.2309L104.776 58.6869C106.054 58.9819 107.312 59.3571 108.542 59.8102C109.649 63.2168 111.003 66.539 112.591 69.751C112.599 69.7615 112.604 69.774 112.606 69.7873C114.041 72.736 115.189 75.8153 116.034 78.9828C116.799 81.6757 117.238 84.4503 117.341 87.2472C117.437 91.3709 115.539 95.3771 115.175 99.5179C114.592 106.023 116.053 113.518 119.798 119.209Z" fill="#FFC2C3"/>
<path d="M55.7334 166C55.2406 166.001 54.749 165.952 54.2662 165.854C49.3942 164.87 47.6778 161.216 47.6972 158.126C47.7187 154.296 50.3201 149.928 55.2458 148.992L55.4391 150.012C51.0612 150.842 48.7519 154.726 48.7326 158.133C48.7111 161.602 50.8571 164.106 54.4724 164.838C56.7731 165.303 58.7687 164.408 60.8718 163.454C61.8304 162.996 62.8169 162.6 63.8255 162.266C65.7115 161.704 67.6761 161.453 69.6426 161.522C70.9149 161.557 72.1831 161.68 73.4384 161.89C86.8843 164.098 100.529 164.841 114.135 164.106C128.837 163.297 136.719 161.018 141.367 159.372C152.415 155.462 156.634 149.874 158.166 146.891C159.276 144.738 159.852 142.348 159.843 139.924C159.843 135.209 158.047 131.271 154.522 128.22L155.199 127.434C158.96 130.692 160.872 134.895 160.879 139.915C160.889 142.505 160.273 145.06 159.085 147.361C157.556 150.341 155.049 153.05 151.635 155.409C148.843 157.345 145.494 159.009 141.713 160.345C137.002 162.01 129.026 164.315 114.191 165.133C100.512 165.872 86.7935 165.126 73.2752 162.906C72.0675 162.703 70.8473 162.585 69.6233 162.551C67.7653 162.489 65.9095 162.729 64.1284 163.263C63.1621 163.584 62.2166 163.965 61.2971 164.403C59.5464 165.199 57.7484 166 55.7334 166Z" fill="black"/>
<path d="M133.449 143.626C130.706 149.938 123.914 147.776 116.452 143.236C111.824 140.418 107.878 140.015 105.545 140.109C108.832 139.814 111.706 138.795 112.512 135.061C113.166 132.022 111.464 129.243 108.521 128.346C115.595 128.034 122.86 128.562 128.62 133.042C128.62 133.042 136.2 137.31 133.449 143.626Z" fill="#FFCA64"/>
<path d="M92.0657 54.6623C91.9797 55.3096 91.7483 55.9291 91.3887 56.4747C90.8117 57.2666 89.866 57.7113 88.9016 57.8485C88.304 57.7654 87.713 57.6403 87.1331 57.4744C86.1686 57.2 85.1729 56.8405 84.5668 56.0569C83.5794 54.762 84.0335 52.9268 83.7961 51.3243C83.5357 49.5743 82.4254 48.028 82.1442 46.2738C81.8422 44.4531 82.4983 42.5617 83.6148 41.1006C84.5814 39.8535 85.8583 38.885 86.9185 37.7273C86.9185 37.8769 86.9039 38.037 86.8956 38.1949C86.5122 38.6372 86.2232 39.1529 86.0463 39.7104C85.8694 40.2679 85.8083 40.8556 85.8668 41.4375C85.9253 42.0193 86.1021 42.5832 86.3865 43.0945C86.6708 43.6059 87.0567 44.054 87.5205 44.4115C87.9246 46.1304 88.9557 49.8632 91.5303 52.0788C91.7508 52.3826 91.9184 52.7213 92.0261 53.0806C92.1515 53.5991 92.165 54.1382 92.0657 54.6623Z" fill="#FFCA64"/>
<path d="M112.991 46.6079C112.638 48.2872 111.368 49.7573 111.013 51.4388C110.816 52.3971 110.908 53.3838 110.847 54.3574C110.816 54.9874 110.659 55.6049 110.387 56.1738C110.212 56.5009 109.983 56.7955 109.708 57.0451C109.043 57.6266 108.098 57.9054 107.186 58.1341C105.788 58.4891 104.331 58.7875 102.882 58.6546C101.229 58.4956 99.56 57.448 98.9558 55.858C98.4802 54.6144 98.8576 53.6408 99.4924 52.7434V52.7282C100.186 52.2071 100.821 51.6134 101.388 50.9574C104.006 44.4386 105.201 46.2681 105.518 44.1489C106.717 43.3343 105.812 41.8576 105.812 40.3047C105.812 39.196 105.747 38.6101 105.09 37.8261L106.453 37.5081C105.895 36.8438 106.266 37.0725 105.404 36.8176L105.09 36.8525C104.621 36.9265 105.539 36.6499 104.977 36.7436C94.0257 38.5579 91.9293 26.13 91.5585 24.1937C91.2269 24.5466 89.9987 24.3353 89.7348 24.7273C89.6214 24.895 90.8255 26.9315 90.7252 27.1036C90.6968 26.9751 90.6728 26.864 90.6575 26.7725C90.3316 27.12 90.034 27.4929 89.7675 27.8877C88.8847 29.1471 88.2209 30.5461 87.8042 32.0259C87.7889 32.0695 87.7802 32.1218 87.7649 32.1675C87.6091 32.9345 87.4103 33.6922 87.1694 34.437C86.1878 33.0583 85.4243 30.7518 85.4243 28.7219C85.4243 27.1166 85.8998 25.6726 87.1062 25.0192C87.1407 24.9996 87.1764 24.9821 87.213 24.9669C87.4195 24.8641 87.634 24.7782 87.8544 24.7099C87.8544 24.7099 87.8697 24.7099 87.8784 24.7099C91.8573 23.1853 96.5824 23.1199 100.622 24.2503C106.111 25.788 108.912 31.3377 110.325 36.4321C110.768 37.9899 111.083 39.5806 111.27 41.1889C112.577 42.7615 113.384 44.7152 112.991 46.6079Z" fill="#FFCA64"/>
<path d="M56.2425 150.071H55.4774H55.456C49.1532 150.014 44.2734 149.13 40.9474 147.443C37.7049 145.804 36.0183 143.43 35.9626 140.384C35.879 135.755 37.5485 131.717 40.9238 128.384L41.6439 129.135C38.4871 132.252 36.9163 136.033 36.987 140.356C37.0427 142.968 38.5278 145.047 41.3996 146.499C44.5392 148.092 49.3997 148.961 55.4517 149.015H55.4753C56.3068 149.028 57.0804 149.015 57.8476 148.991H57.9184C61.4459 148.867 64.9638 148.544 68.4559 148.022C80.7528 146.261 93.832 142.535 102.64 139.716C103.169 139.572 103.71 139.479 104.256 139.438C104.47 139.414 104.715 139.394 104.985 139.383H105.032C107.55 139.281 111.553 139.755 116.204 142.618C122.065 146.22 126.276 147.533 129.083 146.629C130.584 146.146 131.685 145.04 132.454 143.251C133.507 140.809 133.074 138.397 131.169 136.081C130.222 134.954 129.102 133.989 127.853 133.223L127.791 133.182C121.938 128.58 114.521 128.258 108.034 128.548C106.105 128.632 104.192 128.787 102.336 128.935L101.588 128.996C93.7584 129.63 85.9276 130.261 78.0954 130.89L76.3809 131.029L70.8861 131.464L65.3784 131.911L65.2948 130.866L70.8047 130.43L76.2995 129.995L78.014 129.858C85.8448 129.227 93.6755 128.595 101.506 127.962L102.254 127.903C104.119 127.753 106.05 127.599 107.989 127.514C114.652 127.213 122.286 127.555 128.395 132.344C128.978 132.692 136.209 137.18 133.408 143.682C132.523 145.737 131.175 147.069 129.403 147.639C126.252 148.654 121.902 147.348 115.674 143.525C111.244 140.8 107.456 140.345 105.06 140.443H105.03C104.785 140.456 104.56 140.471 104.365 140.495C103.888 140.531 103.414 140.61 102.951 140.733C94.1127 143.562 80.9735 147.304 68.608 149.074C65.0727 149.602 61.511 149.929 57.9398 150.053H57.8734C57.3462 150.06 56.804 150.071 56.2425 150.071Z" fill="black"/>
<path d="M155.402 117.374L155.01 116.452C156.267 115.819 157.517 113.878 157.417 113.405L158.34 113.182C158.587 114.376 156.829 116.665 155.402 117.374Z" fill="black"/>
<path d="M145.365 126.596C145.225 126.596 145.086 126.58 144.95 126.547L145.157 125.541C145.637 125.65 145.832 125.338 146.195 123.876C146.506 122.654 146.897 121.132 148.317 120.88C148.683 120.824 149.057 120.892 149.384 121.072C149.462 120.51 149.601 119.957 149.799 119.427C150.011 118.809 150.452 118.304 151.026 118.021C151.243 117.918 151.48 117.871 151.719 117.885C151.957 117.898 152.189 117.971 152.394 118.098C152.502 118.166 152.603 118.246 152.695 118.337C152.722 118.245 152.755 118.155 152.79 118.063C152.933 117.672 153.161 117.32 153.456 117.034C153.777 116.723 154.197 116.545 154.638 116.535H154.66C154.994 116.558 155.316 116.67 155.595 116.86C155.874 117.05 156.1 117.312 156.251 117.62C156.513 118.163 156.655 118.759 156.666 119.365C156.78 121.331 156.487 124.073 154.442 125.967L153.805 125.216C155.553 123.593 155.8 121.182 155.698 119.437C155.695 118.985 155.593 118.54 155.399 118.134C155.333 117.985 155.231 117.856 155.104 117.758C154.976 117.66 154.826 117.598 154.669 117.575C154.475 117.584 154.291 117.666 154.152 117.807C153.968 117.986 153.826 118.205 153.737 118.449C153.547 119.019 153.451 119.618 153.452 120.221C153.456 120.283 153.456 120.345 153.452 120.407C153.452 120.546 153.442 120.685 153.429 120.835C153.43 120.846 153.43 120.858 153.429 120.869C153.342 122.663 153.126 124.678 152.184 126.025L151.37 125.425C152.153 124.293 152.325 122.429 152.423 120.786C152.423 120.674 152.423 120.572 152.437 120.452C152.437 120.379 152.437 120.304 152.437 120.238C152.437 120.206 152.437 120.174 152.437 120.137C152.391 119.641 152.161 119.166 151.891 118.997C151.82 118.956 151.741 118.935 151.66 118.935C151.579 118.935 151.499 118.956 151.428 118.997C151.103 119.177 150.857 119.477 150.739 119.838C150.517 120.496 150.369 121.179 150.299 121.873C150.28 122.014 150.26 122.155 150.239 122.301C150.218 122.446 150.208 122.515 150.193 122.626C150.14 123.08 150.053 123.53 149.932 123.97C149.892 124.101 149.853 124.24 149.813 124.383C149.719 124.765 149.595 125.138 149.444 125.5L148.537 125.072C148.663 124.732 148.751 124.378 148.8 124.017C148.821 123.902 148.84 123.788 148.863 123.681L148.902 123.482C148.991 123.054 149.095 122.543 149.012 122.185C148.943 121.888 148.564 121.924 148.489 121.935C147.771 122.061 147.503 122.902 147.179 124.171C146.922 125.192 146.562 126.596 145.365 126.596Z" fill="black"/>
<path d="M141.901 129.949C137.366 129.949 133.167 129.254 129.402 127.881C118.544 123.917 113.829 110.698 114.796 99.6904C114.957 97.8296 115.423 95.9861 115.87 94.2047C116.458 91.874 117.015 89.6741 116.963 87.412C116.903 84.9246 116.482 82.2505 115.674 79.2308C114.836 76.0648 113.69 72.9882 112.253 70.0451L113.18 69.5858C114.649 72.59 115.819 75.7306 116.675 78.9625C117.506 82.0616 117.94 84.8173 118.003 87.3863C118.058 89.79 117.457 92.1637 116.877 94.458C116.447 96.2007 115.981 98.0013 115.827 99.7805C114.905 110.396 119.399 123.122 129.769 126.908C133.704 128.344 138.146 129.016 142.949 128.902C146.559 128.818 151.841 128.496 156.015 126.696C157.903 125.878 159.428 123.951 160.197 121.405C160.719 119.666 160.826 117.828 160.51 116.04C160.399 115.396 160.059 113.409 159.34 112.958C159.277 112.917 159.205 112.892 159.131 112.883C159.056 112.875 158.981 112.883 158.91 112.909C158.811 112.937 158.524 113.018 158.307 113.716C158.09 114.413 158.12 115.115 158.137 115.881C158.137 116.207 158.15 116.547 158.137 116.883C158.053 120.004 157.415 122.034 156.24 122.88L155.63 122.045C156.507 121.401 157.029 119.562 157.102 116.853C157.112 116.54 157.102 116.231 157.102 115.903C157.084 115.089 157.065 114.248 157.316 113.413C157.568 112.578 158.012 112.089 158.624 111.911C158.834 111.846 159.056 111.827 159.273 111.856C159.491 111.885 159.7 111.961 159.885 112.078C160.867 112.692 161.264 114.336 161.526 115.862C161.868 117.807 161.75 119.805 161.183 121.697C160.324 124.53 158.59 126.696 156.423 127.634C152.075 129.52 146.667 129.857 142.962 129.949C142.607 129.949 142.253 129.949 141.901 129.949Z" fill="black"/>
<path d="M95.7296 72.101C95.5258 72.101 95.3221 72.101 95.1249 72.0751C94.1901 72.0701 93.2666 71.8708 92.4135 71.49C89.3056 70.091 87.3636 66.4594 86.4794 60.3904L86.2626 58.8251L87.2986 58.6869L87.5154 60.2479C88.3433 65.9305 90.088 69.3007 92.8448 70.5422C93.576 70.867 94.3677 71.0347 95.1682 71.0345H95.2159C96.7092 71.1834 98.7227 70.6027 98.9936 70.5314C101.733 69.277 103.467 65.911 104.293 60.2436L104.509 58.689L105.545 58.8272L105.329 60.3861C104.442 66.4616 102.5 70.1018 99.3924 71.4922L99.3317 71.5159C98.1614 71.865 96.9506 72.0617 95.7296 72.101Z" fill="black"/>
<path d="M79.6417 69.5859L79.1762 69.3785L78.7172 69.1546L78.7364 69.1152C80.2949 66.0433 81.6229 62.866 82.7098 59.6082L82.7376 59.5253V59.546V59.5356L83.1539 59.6704H83.7475V59.7036V59.7741L83.7112 59.8301C82.6051 63.1627 81.2492 66.4123 79.6545 69.5527L79.6417 69.5859Z" fill="black"/>
<path d="M49.089 119.051H49.076C47.0803 119.02 45.1105 118.599 43.2799 117.812C41.1188 116.877 39.4914 115.545 38.6054 113.962C37.9743 112.839 36.8873 111.549 35.2924 111.773C34.8882 111.827 34.1902 112.103 33.9265 112.481C33.8747 112.551 33.8439 112.634 33.8379 112.721L33.8639 112.747V112.913L33.879 112.958L33.9136 113.104L33.7104 113.318L33.4943 113.104L33.0837 113.239L32.98 113.343L32.9259 113.29H32.9L32.8849 113.241L32.6061 112.967L32.7984 112.77C32.7951 112.464 32.8896 112.164 33.0686 111.914C33.557 111.213 34.5813 110.845 35.1497 110.768C36.8462 110.528 38.3914 111.491 39.5152 113.48C41.1685 116.434 45.6744 118.034 49.0782 118.039H49.089C53.1605 118.039 56.0975 115.082 56.9468 110.124C57.2343 108.464 57.4871 106.526 57.781 104.282C59.6439 90.0785 62.7516 66.3065 82.6686 59.0785C83.9326 58.6207 85.2238 58.24 86.5348 57.9384L86.7055 57.902L86.8914 57.8592L86.9433 57.8485H86.9973V58.379L87.101 58.8689L86.9368 58.9052L86.7574 58.9459C85.4913 59.2354 84.2447 59.6034 83.0252 60.0475C63.7112 67.0467 60.6489 90.4314 58.8141 104.41C58.5201 106.665 58.263 108.612 57.9734 110.293C57.0311 115.773 53.7095 119.051 49.089 119.051Z" fill="black"/>
<path d="M142.253 119.046C137.682 119.046 134.399 115.769 133.467 110.277C133.181 108.598 132.927 106.641 132.636 104.397C130.824 90.428 127.794 67.0457 108.701 60.0345C107.491 59.5897 106.254 59.2211 104.998 58.9308L104.882 58.903C104.822 58.8901 104.765 58.8752 104.707 58.8666L104.865 57.8485C104.951 57.8613 105.034 57.8806 105.117 57.8998L105.222 57.9234C106.52 58.2238 107.797 58.6046 109.047 59.0634C128.742 66.295 131.816 90.0644 133.658 104.267C133.948 106.51 134.198 108.448 134.483 110.106C135.322 115.059 138.227 118.02 142.253 118.02C145.619 118.02 150.075 116.415 151.707 113.462C152.812 111.472 154.346 110.51 156.03 110.752C156.642 110.835 157.719 111.241 158.168 112.02C158.282 112.215 158.348 112.434 158.361 112.659C158.374 112.884 158.334 113.11 158.242 113.316L157.291 112.92C157.321 112.86 157.336 112.792 157.333 112.725C157.33 112.657 157.31 112.591 157.274 112.533C157.046 112.133 156.31 111.83 155.889 111.772C154.31 111.543 153.235 112.841 152.611 113.962C151.735 115.545 150.136 116.877 147.989 117.812C146.179 118.599 144.231 119.02 142.257 119.051L142.253 119.046Z" fill="black"/>
<path d="M36.4079 117.374C34.9826 116.665 33.2241 114.376 33.4672 113.182L34.3886 113.405C34.2906 113.878 35.5413 115.825 36.798 116.452L36.4079 117.374Z" fill="black"/>
<path d="M46.4664 126.596C45.269 126.596 44.91 125.193 44.6403 124.141C44.3165 122.873 44.0509 122.033 43.3205 121.905C43.2561 121.905 42.8785 121.86 42.81 122.157C42.727 122.516 42.8287 123.012 42.92 123.455L42.9594 123.652C42.9802 123.761 43.0009 123.865 43.0217 123.987C43.0699 124.347 43.1576 124.7 43.2831 125.039L42.3742 125.467C42.2245 125.104 42.101 124.73 42.0048 124.349C41.9675 124.208 41.9281 124.069 41.8886 123.938C41.7657 123.5 41.6783 123.052 41.6272 122.6C41.6126 122.491 41.5981 122.386 41.5815 122.27C41.5649 122.155 41.54 121.992 41.5213 121.843C41.4514 121.15 41.3037 120.469 41.0814 119.811C40.9653 119.444 40.7163 119.138 40.3862 118.956C40.315 118.919 40.2359 118.901 40.1561 118.903C40.0764 118.906 39.9985 118.929 39.9297 118.971C39.6599 119.14 39.4296 119.612 39.3839 120.104C39.3839 120.143 39.3839 120.179 39.3839 120.211C39.3839 120.284 39.3839 120.359 39.3839 120.425C39.3839 120.536 39.3839 120.639 39.3985 120.759C39.496 122.422 39.6682 124.267 40.4506 125.394L39.635 125.993C38.7033 124.648 38.4895 122.634 38.4003 120.842C38.4013 120.827 38.4013 120.812 38.4003 120.797C38.3899 120.671 38.3837 120.53 38.3775 120.382C38.3743 120.322 38.3743 120.262 38.3775 120.203C38.3802 119.6 38.2848 119.002 38.0953 118.432C38.0051 118.189 37.8633 117.97 37.6802 117.791C37.5436 117.653 37.3629 117.571 37.1718 117.56C37.0142 117.582 36.8646 117.645 36.7366 117.743C36.6087 117.84 36.5064 117.969 36.4393 118.118C36.2463 118.523 36.1442 118.968 36.1405 119.42C36.0409 121.158 36.2878 123.568 38.0351 125.193L37.3648 125.959C35.3229 124.064 35.0282 121.327 35.1423 119.362C35.154 118.757 35.2958 118.162 35.5574 117.619C35.7078 117.312 35.9335 117.05 36.2123 116.86C36.4911 116.67 36.8133 116.558 37.1469 116.535H37.1718C37.6112 116.545 38.0314 116.722 38.3505 117.034C38.6468 117.319 38.8754 117.671 39.0187 118.062C39.054 118.154 39.0851 118.244 39.1142 118.336C39.2057 118.245 39.3066 118.165 39.4151 118.096C39.6183 117.97 39.8482 117.897 40.085 117.883C40.3217 117.869 40.5583 117.914 40.7743 118.015C41.351 118.298 41.7951 118.806 42.009 119.426C42.2067 119.956 42.3459 120.507 42.424 121.069C42.7478 120.888 43.12 120.82 43.4844 120.876C44.9121 121.124 45.3002 122.644 45.6135 123.87C45.987 125.33 46.1821 125.642 46.6511 125.533L46.8586 126.538C46.7303 126.572 46.5988 126.591 46.4664 126.596Z" fill="black"/>
<path d="M49.9011 129.949C49.5488 129.949 49.1945 129.945 48.8379 129.937C45.1416 129.851 39.727 129.507 35.3863 127.646C33.2192 126.706 31.4838 124.54 30.6247 121.704C30.0585 119.813 29.9408 117.817 30.281 115.872C30.5431 114.344 30.9425 112.7 31.9219 112.086C32.1081 111.968 32.3177 111.892 32.5362 111.864C32.7547 111.835 32.9768 111.854 33.187 111.92C33.797 112.092 34.2351 112.594 34.4907 113.423C34.7463 114.252 34.7248 115.104 34.7055 115.917C34.7055 116.246 34.6926 116.561 34.7055 116.864C34.7785 119.577 35.3025 121.421 36.1788 122.061L35.5689 122.896C34.394 122.037 33.7561 120.019 33.6702 116.885C33.6595 116.551 33.6702 116.211 33.6702 115.885C33.6874 115.117 33.7024 114.383 33.4984 113.713C33.2944 113.043 32.9937 112.94 32.8992 112.914C32.8288 112.889 32.7534 112.88 32.6789 112.888C32.6044 112.896 32.5328 112.921 32.4696 112.962C31.7501 113.412 31.4108 115.394 31.3012 116.046C30.9853 117.835 31.0919 119.672 31.6126 121.413C32.3837 123.961 33.9086 125.888 35.7965 126.706C39.9697 128.507 45.2468 128.829 48.8615 128.913C53.6704 129.024 58.097 128.355 62.0404 126.918C72.4099 123.132 76.9031 110.403 75.9795 99.7859C75.8249 98.0064 75.3696 96.2054 74.9293 94.4624C74.3494 92.1677 73.7501 89.7936 73.806 87.3894C73.8661 84.8136 74.2999 82.0638 75.1333 78.9642C75.9894 75.7316 77.1597 72.5906 78.6278 69.5858L79.5556 70.0452C78.1172 72.9886 76.9705 76.0657 76.132 79.2325C75.3223 82.2527 74.8992 84.9273 74.8433 87.4152C74.7896 89.6777 75.3459 91.8779 75.9366 94.2091C76.3855 95.9907 76.8515 97.8346 77.0105 99.6957C77.9662 110.705 73.2518 123.926 62.3926 127.891C58.634 129.26 54.4286 129.949 49.9011 129.949Z" fill="black"/>
<path d="M88.2148 58.6868C87.2246 58.6617 86.2427 58.5069 85.2964 58.2266C84.1731 57.9248 83.0321 57.5216 82.3053 56.6075C81.4903 55.5858 81.4793 54.334 81.4705 53.1245C81.4793 52.6053 81.4513 52.0863 81.3868 51.5708C81.2591 50.7264 80.9111 49.9369 80.5432 49.0946C80.1344 48.2485 79.8305 47.3594 79.638 46.4454C79.3208 44.5793 79.9287 42.5211 81.3031 40.8007C81.9488 40.0375 82.6574 39.3252 83.422 38.6707C84.1103 38.0831 84.7529 37.4481 85.3448 36.7709C85.8572 36.1507 86.2823 35.4686 86.6091 34.7422L86.7126 34.4974C86.8947 34 87.0419 33.4916 87.1531 32.9754C87.2016 32.7643 87.25 32.5722 87.3029 32.3674C87.7317 30.8194 88.4448 29.3569 89.4085 28.0484C89.7147 27.6174 90.0549 27.2095 90.4261 26.8282L91.2014 27.5249C90.8658 27.8679 90.5587 28.2357 90.283 28.6247C89.3926 29.8316 88.7327 31.1803 88.3337 32.6081C88.283 32.8191 88.2346 33.007 88.1883 33.2012C88.0679 33.7653 87.9082 34.321 87.7104 34.8647L87.598 35.1306C87.2334 35.9443 86.7579 36.7081 86.184 37.402C85.5603 38.1207 84.883 38.7952 84.1576 39.4201C83.4326 40.0363 82.7615 40.7085 82.1511 41.4297C80.9551 42.9264 80.4221 44.6996 80.693 46.285C80.8718 47.1201 81.1527 47.9321 81.53 48.7041C81.9066 49.5675 82.2965 50.4583 82.444 51.4251C82.5148 51.9854 82.5464 52.5496 82.5387 53.1139C82.5387 54.2053 82.5564 55.2354 83.1577 55.9869C83.6929 56.6645 84.6422 56.9917 85.5805 57.2535C86.5188 57.5152 87.6267 57.7496 88.7037 57.6546C89.7808 57.5596 90.7058 57.1121 91.2234 56.4302C91.5582 55.9431 91.7701 55.3881 91.8424 54.809C91.9353 54.3513 91.9248 53.8798 91.8115 53.4263C91.6463 52.8606 91.2279 52.3708 90.7873 51.841L90.5957 51.6109C88.9229 49.5553 87.7294 47.1799 87.0958 44.6447L88.1244 44.3956C88.724 46.7882 89.8505 49.0302 91.4283 50.9713C91.49 51.0473 91.5516 51.1212 91.6155 51.195C92.1045 51.7756 92.6111 52.3772 92.8357 53.1456C92.9924 53.7395 93.012 54.3591 92.893 54.961C92.7962 55.6984 92.5193 56.4036 92.0846 57.0192C91.3864 57.9417 90.1904 58.5391 88.805 58.6615C88.6068 58.6784 88.4108 58.6868 88.2148 58.6868Z" fill="black"/>
<path d="M104.759 38.5657C104.759 38.0317 104.743 37.5126 104.707 36.9786L105.49 36.8889C105.528 37.455 105.545 38.0018 105.545 38.5657H104.759Z" fill="black"/>
<path d="M87.4618 37.7273L86.2626 37.7016C86.3092 36.5844 86.4756 35.4716 86.7602 34.3738L87.9394 34.5372C87.6665 35.5896 87.5067 36.6563 87.4618 37.7273Z" fill="black"/>
<path d="M101.366 37.7273C93.3513 37.7273 91.5909 32.2083 90.4879 28.7566C90.2716 28.1077 90.0856 27.4884 89.8802 27.0128L89.8564 26.943C89.8564 26.943 89.5298 25.7826 88.6907 25.4275C88.2387 25.2351 87.6763 25.3112 87.0254 25.6516C86.3744 25.9919 85.957 26.6218 85.7558 27.5349C85.2801 29.6845 86.2014 32.7093 87.3563 34.1846L86.5301 34.8145C85.2325 33.1658 84.1836 29.8346 84.7372 27.3298C85.0011 26.1293 85.6218 25.2436 86.5323 24.7659C87.4817 24.2671 88.3511 24.1804 89.1124 24.5059C90.3192 25.0217 90.7777 26.4083 90.8534 26.6598C91.0696 27.1777 91.2729 27.8033 91.4849 28.4649C92.7695 32.481 94.5322 38.0084 104.52 36.4569L106.2 36.1842L106.384 37.1861C106.142 37.2284 104.898 37.4292 104.684 37.463C103.587 37.636 102.478 37.7243 101.366 37.7273Z" fill="black"/>
<path d="M108.736 38.0278L107.993 38.752L110.625 41.454L111.368 40.7299L108.736 38.0278Z" fill="black"/>
<path d="M95.9148 54.493C95.7426 54.493 95.5661 54.493 95.3832 54.4718C93.6507 54.3656 92.0317 53.5883 90.8807 52.3101C90.8643 52.2936 90.8492 52.2759 90.8355 52.2571C90.7683 52.185 90.7051 52.1094 90.6461 52.0306C90.6042 51.9872 90.5661 51.9405 90.5321 51.8909L90.4783 51.8231L90.4546 51.7956L91.2509 51.1414C91.27 51.1623 91.288 51.1842 91.3047 51.207L91.3348 51.2451L91.3628 51.2811C91.3773 51.3019 91.3931 51.3217 91.4102 51.3404L91.4704 51.4124C91.5115 51.4687 91.556 51.5224 91.6039 51.5733L91.6749 51.6516C92.6469 52.72 94.008 53.3682 95.4628 53.4555C96.8962 53.5635 98.0584 53.1633 98.9171 52.255L99.6768 52.9495C99.1965 53.4541 98.6128 53.8526 97.9643 54.1187C97.3157 54.3848 96.6172 54.5124 95.9148 54.493Z" fill="black"/>
<path d="M101.354 46.9495C100.359 46.9495 99.3868 46.6547 98.5598 46.1024C97.7327 45.55 97.088 44.7649 96.707 43.8462C96.326 42.9276 96.2259 41.9166 96.4193 40.9411C96.6127 39.9655 97.0909 39.0692 97.7935 38.3653C98.4961 37.6615 99.3916 37.1817 100.367 36.9866C101.342 36.7916 102.353 36.8899 103.273 37.2693C104.192 37.6487 104.978 38.2921 105.532 39.1182C106.086 39.9443 106.382 40.916 106.384 41.9105C106.384 42.5717 106.255 43.2265 106.002 43.8375C105.75 44.4486 105.379 45.0039 104.912 45.4718C104.445 45.9397 103.891 46.3111 103.28 46.5646C102.669 46.8182 102.015 46.949 101.354 46.9495ZM101.354 37.9367C100.566 37.9367 99.7952 38.1705 99.1401 38.6085C98.485 39.0465 97.9745 39.669 97.6734 40.3972C97.3722 41.1254 97.2938 41.9266 97.4482 42.6994C97.6026 43.4721 97.9827 44.1817 98.5406 44.7383C99.0984 45.295 99.8088 45.6736 100.582 45.8263C101.355 45.9789 102.156 45.8988 102.884 45.5961C103.611 45.2933 104.233 44.7815 104.669 44.1255C105.106 43.4694 105.338 42.6986 105.336 41.9105C105.333 40.856 104.912 39.8456 104.166 39.1007C103.419 38.3559 102.408 37.9373 101.354 37.9367Z" fill="black"/>
<path d="M90.4546 46.1111C89.4597 46.1111 88.4871 45.8161 87.6599 45.2634C86.8326 44.7106 86.1879 43.925 85.8072 43.0059C85.4264 42.0867 85.3268 41.0753 85.5209 40.0995C85.715 39.1237 86.1941 38.2274 86.8976 37.5239C87.6011 36.8204 88.4974 36.3413 89.4732 36.1472C90.449 35.9531 91.4604 36.0527 92.3796 36.4334C93.2987 36.8142 94.0844 37.4589 94.6371 38.2862C95.1898 39.1134 95.4849 40.0859 95.4849 41.0808C95.4831 42.4144 94.9526 43.6929 94.0096 44.6359C93.0666 45.5789 91.7882 46.1094 90.4546 46.1111ZM90.4546 37.0983C89.6669 37.0983 88.8969 37.3319 88.242 37.7695C87.5871 38.2071 87.0766 38.8291 86.7752 39.5568C86.4738 40.2845 86.3949 41.0853 86.5486 41.8578C86.7022 42.6303 87.0815 43.3399 87.6385 43.8969C88.1955 44.4539 88.9051 44.8332 89.6776 44.9868C90.4501 45.1405 91.2509 45.0616 91.9786 44.7602C92.7063 44.4588 93.3283 43.9483 93.7659 43.2934C94.2035 42.6385 94.4371 41.8685 94.4371 41.0808C94.4359 40.025 94.016 39.0127 93.2693 38.2661C92.5227 37.5194 91.5104 37.0995 90.4546 37.0983Z" fill="black"/>
<path d="M89.1943 40.2424L88.7778 39.6166C88.8745 39.5958 91.1378 39.1324 92.9698 39.643L92.4368 40.2424C91.0733 39.8553 89.2141 40.2327 89.1943 40.2424Z" fill="black"/>
<path d="M99.2571 41.0808L98.8384 39.8292C98.935 39.7876 101.197 38.8607 103.03 39.8819L102.498 41.0808C101.147 40.3204 99.2744 41.0753 99.2571 41.0808Z" fill="black"/>
<path d="M96.3254 48.6262C95.9936 48.6267 95.6691 48.5286 95.393 48.3445C95.1169 48.1605 94.9017 47.8986 94.7745 47.5921C94.6474 47.2856 94.614 46.9483 94.6786 46.6229C94.7432 46.2974 94.903 45.9985 95.1376 45.7638C95.3722 45.5292 95.6712 45.3695 95.9966 45.3048C96.3221 45.2402 96.6594 45.2736 96.9659 45.4008C97.2724 45.5279 97.5342 45.7432 97.7183 46.0192C97.9024 46.2953 98.0004 46.6198 98 46.9516C97.9989 47.3954 97.8221 47.8207 97.5083 48.1345C97.1945 48.4483 96.7692 48.6251 96.3254 48.6262ZM96.3254 46.2945C96.1957 46.294 96.0689 46.3321 95.9609 46.4038C95.8529 46.4755 95.7686 46.5777 95.7187 46.6973C95.6688 46.817 95.6555 46.9488 95.6806 47.076C95.7056 47.2032 95.7678 47.3201 95.8593 47.4119C95.9509 47.5037 96.0676 47.5663 96.1947 47.5917C96.3218 47.6172 96.4536 47.6043 96.5734 47.5548C96.6932 47.5053 96.7957 47.4214 96.8677 47.3136C96.9398 47.2058 96.9783 47.0791 96.9783 46.9495C96.9777 46.7765 96.9087 46.6107 96.7864 46.4884C96.6641 46.3661 96.4984 46.2971 96.3254 46.2966V46.2945Z" fill="black"/>
<path d="M103.354 58.6869C103.104 58.6869 102.851 58.6763 102.597 58.653C100.677 58.4732 98.9663 57.2525 98.3425 55.613C97.5808 53.6095 98.7669 52.2281 99.8278 50.9947C100.012 50.7832 100.203 50.5589 100.377 50.341C101.084 49.4644 101.71 48.5263 102.249 47.5379C102.64 46.8042 102.98 46.0443 103.265 45.2637L104.226 45.6106C103.928 46.4341 103.573 47.2364 103.165 48.0118C102.597 49.0559 101.936 50.0471 101.19 50.9736C101.003 51.2084 100.806 51.4369 100.617 51.6569C99.622 52.8141 98.7626 53.8105 99.3101 55.2533C99.7981 56.5375 101.162 57.4958 102.705 57.6397C104.059 57.7645 105.429 57.4768 106.709 57.1488C107.536 56.9373 108.389 56.6919 108.952 56.1968C109.514 55.7018 109.817 54.9719 109.887 53.9396C109.911 53.6201 109.913 53.3049 109.915 52.9622C109.9 52.3186 109.949 51.6752 110.061 51.0413C110.25 50.157 110.666 49.3488 111.067 48.5703C111.468 47.7918 111.827 47.0894 111.984 46.3426C112.408 44.2927 111.192 42.4373 110.424 41.5128L110.327 41.3944L110.31 41.242C110.13 39.7063 109.824 38.1878 109.395 36.7021C108.173 32.2848 105.608 26.7082 100.318 25.2295C96.0445 24.0342 91.2577 24.305 87.5148 25.9572L87.101 25.0242C91.054 23.281 96.0997 22.9891 100.594 24.2478C106.344 25.8557 109.081 31.7602 110.38 36.4313C110.809 37.9213 111.118 39.4429 111.305 40.9818C112.762 42.7864 113.357 44.7602 112.981 46.5499C112.794 47.4364 112.376 48.2424 111.973 49.0336C111.57 49.8248 111.218 50.4997 111.057 51.2486C110.961 51.8167 110.92 52.3926 110.933 52.9685C110.933 53.307 110.933 53.6582 110.904 54.0073C110.817 55.3041 110.384 56.2984 109.631 56.969C108.877 57.6396 107.914 57.902 106.968 58.1432C105.791 58.4757 104.577 58.6584 103.354 58.6869Z" fill="black"/>
<path d="M95.1113 123.242C93.0352 123.248 90.961 123.112 88.9012 122.835C84.9254 122.293 80.9497 121.359 77.1063 120.455C75.4374 120.061 73.7088 119.656 72.0101 119.289L72.2129 118.212C73.9201 118.581 75.653 118.989 77.3346 119.383C81.1567 120.28 85.1068 121.204 89.0378 121.746C97.4523 122.885 105.378 121.402 113.771 119.82C115.692 119.458 117.67 119.084 119.636 118.75L119.798 119.833C117.841 120.168 115.863 120.539 113.951 120.901C107.813 122.056 101.522 123.242 95.1113 123.242Z" fill="black"/>
<path d="M53.5657 149.232H15V150.071H53.5657V149.232Z" fill="black"/>
<path d="M191.061 148.394H157.525V149.232H191.061V148.394Z" fill="black"/>
<path d="M190.836 117.374C190.672 112.756 189.094 108.293 186.305 104.562C184.777 102.465 182.996 100.556 181 98.8753L181.695 98.0909C183.754 99.8231 185.591 101.793 187.165 103.957C190.078 107.855 191.727 112.517 191.899 117.341L190.836 117.374Z" fill="#CCDDE2"/>
<path d="M169.122 64.5556H168.092C168.092 62.9195 168.133 61.2641 168.161 59.6621C168.235 55.514 168.306 51.5967 168.071 47.8908C168.071 47.8053 168.06 47.7284 168.054 47.6516C168.047 47.5747 168.054 47.4999 168.039 47.4251C167.227 36.0874 163.097 26.3581 156.416 20.042C152.356 16.208 147.395 13.8477 141.657 13.0595C136.44 12.3333 130.731 12.9591 125.149 14.8687C121.24 16.1994 117.311 18.0876 112.783 20.811L112.253 19.9288C116.845 17.167 120.838 15.2489 124.817 13.8947C130.549 11.9339 136.423 11.2931 141.8 12.0407C147.754 12.8694 152.914 15.3108 157.124 19.303C163.993 25.7963 168.237 35.7649 169.069 47.3717C169.069 47.4486 169.069 47.517 169.082 47.5853C169.095 47.6537 169.095 47.7562 169.099 47.8417C169.338 51.5817 169.265 55.5183 169.191 59.6899C169.161 61.2726 169.131 62.9259 169.122 64.5556Z" fill="#CCDDE2"/>
<path d="M25.6034 64.5555L24.5788 64.3949C25.3472 59.4575 24.779 54.7479 24.1763 49.7605C24.0084 48.3628 23.834 46.9152 23.6898 45.4545C22.7255 35.8053 24.06 26.5749 27.4201 19.4715C31.4947 10.8466 38.4537 5.65957 47.5394 4.47023C52.8001 3.7779 57.7982 4.37908 62.3916 6.25207C66.6966 8.01002 70.8035 10.9421 74.5747 14.9724C75.595 16.0576 76.5916 17.2426 77.6485 18.4927C78.2684 19.2262 78.9098 19.9858 79.5556 20.7259L78.7785 21.4183C78.1328 20.6695 77.487 19.899 76.8585 19.1698C75.8102 17.9306 74.8222 16.7608 73.8213 15.6973C66.1821 7.53473 57.626 4.1946 47.6664 5.51199C43.0773 6.11316 39.0564 7.75393 35.7222 10.3844C32.6937 12.7717 30.214 15.9838 28.3499 19.9338C25.0696 26.8788 23.7781 35.903 24.7144 45.3569C24.8586 46.8067 25.033 48.2477 25.2009 49.6411C25.8165 54.6893 26.3847 59.4705 25.6034 64.5555Z" fill="#CCDDE2"/>
<path d="M17.0929 121.566C14.4009 120.283 11.9069 118.616 9.68808 116.615C4.92245 112.301 2.73785 107.242 3.3691 101.984C3.74828 98.7993 5.09265 95.693 7.59396 92.2222L8.43635 92.8361C6.03845 96.168 4.75656 99.1269 4.39892 102.12C2.97053 114.023 17.3708 120.559 17.5152 120.62L17.0929 121.566Z" fill="#CCDDE2"/>
</svg>
