<svg width="53" height="59" viewBox="0 0 53 59" fill="none" xmlns="http://www.w3.org/2000/svg">
    <g clip-path="url(#clip0)">
        <path d="M2.20636 25.3711C2.20636 25.3438 2.21592 25.3182 2.2191 25.291C2.34645 24.4681 2.50564 23.626 2.70781 22.8175C2.74775 22.5789 2.69669 22.3339 2.56485 22.1315C2.43301 21.9292 2.23009 21.7843 1.99665 21.7258C1.7632 21.6674 1.51643 21.6997 1.30564 21.8163C1.09485 21.9329 0.935568 22.1252 0.859635 22.3548C0.635917 23.226 0.460014 24.109 0.332723 24.9996C0.305065 25.1247 0.302558 25.254 0.325349 25.3801C0.34814 25.5061 0.395769 25.6263 0.465432 25.7336C0.535095 25.8408 0.625385 25.933 0.730989 26.0046C0.836593 26.0762 0.955377 26.1259 1.08035 26.1507C1.20533 26.1754 1.33396 26.1748 1.4587 26.1489C1.58343 26.1229 1.70174 26.0721 1.80666 25.9994C1.91158 25.9268 2.00099 25.8338 2.06964 25.7259C2.13828 25.618 2.18477 25.4973 2.20636 25.3711Z"
              fill="black"/>
        <path d="M21.3789 2.12613C21.3537 2.00247 21.3045 1.88503 21.2341 1.78051C21.1637 1.676 21.0735 1.58647 20.9687 1.51703C20.8639 1.44759 20.7465 1.39961 20.6232 1.37584C20.4999 1.35206 20.3732 1.35295 20.2503 1.37846C20.1738 1.39457 20.0995 1.41983 20.029 1.45371C19.1885 1.74349 18.348 2.06369 17.5329 2.43352C17.303 2.53367 17.1213 2.72073 17.0272 2.95434C16.9331 3.18795 16.9341 3.4494 17.0299 3.6823L17.092 3.78796C17.2119 3.98947 17.401 4.13982 17.6236 4.21062C17.8462 4.28142 18.0869 4.26775 18.3002 4.1722C19.0627 3.83279 19.8507 3.5238 20.6355 3.25964C20.8835 3.20836 21.1011 3.06017 21.2405 2.84763C21.3799 2.63509 21.4297 2.37558 21.3789 2.12613Z"
              fill="black"/>
        <path d="M4.11502 18.6581C4.43339 17.8864 4.8043 17.1243 5.19749 16.3879C5.25708 16.2768 5.29433 16.1551 5.30714 16.0296C5.31994 15.9041 5.30804 15.7773 5.27212 15.6565C5.2362 15.5356 5.17696 15.423 5.09779 15.3252C5.01861 15.2274 4.92105 15.1462 4.81067 15.0862C4.70029 15.0263 4.57926 14.9888 4.45448 14.976C4.32971 14.9631 4.20363 14.9751 4.08345 15.0112C3.96328 15.0473 3.85135 15.1069 3.75407 15.1865C3.65679 15.2661 3.57605 15.3643 3.51647 15.4753C3.09622 16.2646 2.70621 17.0763 2.35918 17.9088C2.26789 18.142 2.27084 18.4019 2.36742 18.6329C2.464 18.864 2.64654 19.0479 2.87609 19.1455C3.10565 19.2431 3.36403 19.2466 3.59609 19.1552C3.82816 19.0638 4.01552 18.8848 4.1182 18.6565L4.11502 18.6581Z"
              fill="black"/>
        <path d="M7.57575 12.6751C8.07878 12.0139 8.61843 11.3607 9.18673 10.7427C9.27213 10.6503 9.3386 10.5419 9.38234 10.4236C9.42608 10.3054 9.44623 10.1796 9.44165 10.0536C9.43707 9.9275 9.40784 9.80357 9.35563 9.68886C9.30342 9.57415 9.22926 9.47091 9.13738 9.38503L9.11669 9.36742C8.93009 9.19782 8.68452 9.10909 8.43328 9.12048C8.18203 9.13187 7.9454 9.24247 7.77473 9.42825C7.173 10.0895 6.59037 10.7827 6.03958 11.5096C5.89003 11.7148 5.82661 11.9709 5.863 12.2227C5.89939 12.4745 6.03268 12.7018 6.23414 12.8557C6.4356 13.0096 6.68911 13.0777 6.94006 13.0455C7.191 13.0132 7.4193 12.883 7.57575 12.6831V12.6751Z"
              fill="black"/>
        <path d="M28.2765 0.891701C28.2675 0.765863 28.2338 0.643056 28.1775 0.530294C28.1213 0.417532 28.0435 0.317024 27.9485 0.234512C27.8536 0.151999 27.7435 0.0890968 27.6244 0.0493988C27.5053 0.00970078 27.3797 -0.00601576 27.2545 0.0031468C26.3647 0.0671868 25.47 0.172853 24.5881 0.323347C24.4601 0.339256 24.3366 0.381092 24.2251 0.446331C24.1135 0.51157 24.0163 0.598859 23.9392 0.70293C23.8622 0.807002 23.8069 0.925697 23.7767 1.05185C23.7465 1.17801 23.742 1.30902 23.7635 1.43696C23.785 1.5649 23.8321 1.68713 23.9019 1.79628C23.9717 1.90542 24.0627 1.99921 24.1696 2.07199C24.2764 2.14477 24.3967 2.19502 24.5234 2.21973C24.6501 2.24443 24.7804 2.24307 24.9065 2.21573C25.7294 2.07151 26.5595 1.97264 27.393 1.91954C27.5182 1.91041 27.6403 1.87658 27.7524 1.81998C27.8645 1.76339 27.9644 1.68513 28.0465 1.58968C28.1285 1.49423 28.1911 1.38347 28.2305 1.26371C28.27 1.14395 28.2856 1.01754 28.2765 0.891701Z"
              fill="black"/>
        <path d="M12.396 7.76168C13.055 7.24616 13.7395 6.75145 14.4336 6.29677C14.6462 6.15813 14.7953 5.94024 14.8481 5.69104C14.901 5.44184 14.8532 5.18173 14.7153 4.96794C14.5775 4.75414 14.3609 4.60418 14.1131 4.55104C13.8653 4.4979 13.6067 4.54592 13.3941 4.68456C12.633 5.1595 11.9029 5.68304 11.2084 6.25194C11.0326 6.39491 10.9129 6.59597 10.8707 6.81936C10.8284 7.04275 10.8663 7.27397 10.9776 7.4719L11.054 7.59838C11.1314 7.6978 11.2276 7.78089 11.3369 7.84292C11.4463 7.90494 11.5667 7.94467 11.6913 7.95984C11.816 7.975 11.9424 7.96531 12.0633 7.93131C12.1842 7.89731 12.2972 7.83966 12.396 7.76168Z"
              fill="black"/>
        <path d="M6.51876 46.429C6.62305 46.3581 6.71237 46.2671 6.78159 46.1613C6.8508 46.0556 6.89854 45.9371 6.92206 45.8127C6.94559 45.6883 6.94443 45.5605 6.91865 45.4365C6.89287 45.3126 6.84299 45.195 6.77187 45.0906C6.28925 44.4027 5.84291 43.6898 5.43469 42.9548C5.37393 42.8436 5.29184 42.7455 5.19317 42.6663C5.0945 42.5872 4.9812 42.5285 4.85983 42.4936C4.73847 42.4587 4.61143 42.4484 4.48607 42.4632C4.36071 42.478 4.23952 42.5177 4.12949 42.5799C4.01946 42.6421 3.92278 42.7256 3.84504 42.8256C3.7673 42.9257 3.71005 43.0402 3.67658 43.1626C3.64311 43.285 3.6341 43.4128 3.65006 43.5388C3.66603 43.6647 3.70665 43.7862 3.76958 43.8962L4.18506 44.5942C4.50344 45.145 4.83773 45.6941 5.19432 46.1808C5.33766 46.3898 5.55744 46.5333 5.80562 46.5798C6.05381 46.6263 6.3102 46.572 6.51876 46.429Z"
              fill="black"/>
        <path d="M38.3404 56.5857C38.2669 56.3424 38.1004 56.1384 37.8775 56.0183C37.6546 55.8983 37.3934 55.872 37.1513 55.9453C36.3554 56.1871 35.5355 56.3872 34.7205 56.5489C34.4965 56.6218 34.3071 56.7755 34.1888 56.9803C34.0705 57.185 34.0316 57.4266 34.0796 57.6584C34.1276 57.8903 34.259 58.0962 34.4487 58.2365C34.6384 58.3769 34.8729 58.4418 35.1073 58.4189C35.9829 58.2427 36.8584 58.025 37.6957 57.7785C37.9384 57.7061 38.1426 57.5399 38.2635 57.3162C38.3843 57.0926 38.412 56.8299 38.3404 56.5857Z"
              fill="black"/>
        <path d="M31.3695 58.017C31.3695 58.001 31.3695 57.985 31.3695 57.969C31.3556 57.7201 31.246 57.4865 31.0639 57.3174C30.8818 57.1483 30.6415 57.057 30.3937 57.0628C29.5596 57.0948 28.7175 57.0868 27.8849 57.0356C27.6316 57.0167 27.3812 57.0998 27.1888 57.2666C26.9964 57.4334 26.8777 57.6702 26.8589 57.925C26.8402 58.1797 26.9228 58.4316 27.0886 58.6251C27.2544 58.8186 27.4899 58.9379 27.7432 58.9568C28.6315 59.0032 29.5357 59.0128 30.424 58.9856C30.677 58.9831 30.9187 58.8797 31.096 58.6981C31.2733 58.5164 31.3717 58.2715 31.3695 58.017Z"
              fill="black"/>
        <path d="M44.8862 53.4269C44.7591 53.207 44.5505 53.0467 44.3061 52.9813C44.0617 52.9159 43.8014 52.9506 43.5825 53.0779L43.549 53.0987L43.4551 53.1547C42.7404 53.5854 41.9985 53.9857 41.244 54.3507C41.0159 54.461 40.8407 54.6579 40.7569 54.898C40.673 55.1382 40.6873 55.402 40.7967 55.6315L40.8428 55.7083C40.9655 55.919 41.1632 56.0747 41.3959 56.144C41.6286 56.2133 41.8788 56.1909 42.0957 56.0814C42.8916 55.6971 43.6875 55.2665 44.4532 54.8006L44.5631 54.7349C44.7768 54.6032 44.9306 54.3922 44.991 54.1475C45.0515 53.9028 45.0138 53.644 44.8862 53.4269Z"
              fill="black"/>
        <path d="M3.6072 38.9539C3.29845 38.1707 3.03951 37.3686 2.83196 36.5524C2.7813 36.3027 2.63409 36.0835 2.42273 35.943C2.21137 35.8025 1.95316 35.7521 1.70491 35.8031C1.45666 35.8541 1.2387 36.0021 1.09899 36.2147C0.959276 36.4272 0.909247 36.6869 0.95991 36.9366C0.96787 36.9734 0.979013 37.0119 0.990156 37.0487C1.22098 37.91 1.4916 38.7778 1.7861 39.6311L1.87683 39.7912C1.9866 40.0222 2.18311 40.1998 2.42314 40.2851C2.66316 40.3704 2.92703 40.3563 3.1567 40.2459C3.38638 40.1355 3.56304 39.9378 3.64782 39.6964C3.7326 39.455 3.71857 39.1897 3.6088 38.9587L3.6072 38.9539Z"
              fill="black"/>
        <path d="M11.4409 51.5602C11.5921 51.3717 11.667 51.1326 11.6504 50.891C11.6339 50.6493 11.5272 50.4229 11.3517 50.257L11.3294 50.2698C10.6965 49.7231 10.1004 49.1348 9.54493 48.5087C9.45828 48.4171 9.35455 48.3436 9.23965 48.2924C9.12476 48.2411 9.00095 48.2131 8.87531 48.21C8.74966 48.2069 8.62463 48.2287 8.50736 48.2742C8.39009 48.3196 8.28287 48.3879 8.19183 48.475C8.10079 48.5622 8.02771 48.6665 7.97676 48.7821C7.92581 48.8976 7.89799 49.0221 7.89488 49.1485C7.89178 49.2749 7.91345 49.4006 7.95867 49.5186C8.00388 49.6365 8.07175 49.7443 8.1584 49.8359C8.77287 50.4763 9.43191 51.1087 10.0973 51.6979C10.2937 51.8587 10.5455 51.9346 10.7974 51.9088C11.0494 51.883 11.2808 51.7576 11.4409 51.5602Z"
              fill="black"/>
        <path d="M2.03127 32.2233C1.96441 31.3764 1.93098 30.5231 1.91187 29.6905C1.90976 29.4358 1.80711 29.1923 1.6265 29.0136C1.44588 28.835 1.2021 28.7358 0.948788 28.7379C0.695472 28.7401 0.453371 28.8433 0.275742 29.025C0.0981138 29.2066 -0.000490839 29.4518 0.00162012 29.7066C0.00162012 30.6047 0.0573359 31.5093 0.127379 32.4138C0.152499 32.6686 0.27722 32.9029 0.474104 33.0652C0.670987 33.2275 0.923907 33.3045 1.17722 33.2792C1.43054 33.2539 1.6635 33.1285 1.82486 32.9305C1.98622 32.7325 2.06275 32.4781 2.03763 32.2233H2.03127Z"
              fill="black"/>
        <path d="M24.2475 57.5464C24.2952 57.3018 24.2464 57.0481 24.1115 56.839C23.9767 56.6299 23.7663 56.4817 23.5248 56.4257C22.7059 56.2557 21.8966 56.0419 21.1004 55.7853C20.9792 55.742 20.8505 55.7238 20.7222 55.7318C20.5938 55.7398 20.4684 55.7737 20.3534 55.8316C20.2384 55.8896 20.1362 55.9702 20.053 56.0688C19.9698 56.1674 19.9072 56.2819 19.869 56.4054C19.8308 56.5289 19.8178 56.6589 19.8308 56.7876C19.8438 56.9162 19.8825 57.0409 19.9445 57.1542C20.0066 57.2675 20.0908 57.367 20.192 57.4468C20.2932 57.5265 20.4095 57.5849 20.5337 57.6184C21.3678 57.8618 22.2561 58.1195 23.1205 58.3004C23.2437 58.3256 23.3707 58.3261 23.4941 58.3018C23.6176 58.2775 23.735 58.2289 23.8397 58.1589C23.9445 58.0888 24.0344 57.9986 24.1044 57.8935C24.1743 57.7884 24.223 57.6704 24.2475 57.5464Z"
              fill="black"/>
        <path d="M17.4534 55.457C17.573 55.2326 17.5991 54.9696 17.5259 54.7258C17.4528 54.4821 17.2864 54.2775 17.0634 54.157C17.0485 54.1471 17.0324 54.139 17.0156 54.133L17.0379 54.1186C16.2961 53.744 15.559 53.3293 14.8316 52.9018C14.6165 52.7668 14.3568 52.7232 14.1098 52.7807C13.8627 52.8382 13.6485 52.9921 13.5143 53.2084C13.38 53.4248 13.3367 53.6859 13.3939 53.9343C13.4511 54.1828 13.604 54.3982 13.8191 54.5332C14.5721 55.0039 15.368 55.4474 16.164 55.8573C16.3878 55.9759 16.6492 56.0004 16.891 55.9253C17.1327 55.8503 17.335 55.6819 17.4534 55.457Z"
              fill="black"/>
        <path d="M29.3765 6.75781C16.9296 6.75781 6.79889 16.953 6.79889 29.4696C6.79889 41.9862 16.9296 52.1749 29.3765 52.1749C41.8234 52.1749 51.9637 41.9926 51.9637 29.4696C51.9637 16.9466 41.833 6.75781 29.3765 6.75781ZM18.6106 11.9194L18.8192 11.7914C18.9322 11.7225 19.0452 11.6537 19.1598 11.588L19.1885 11.5704C22.2876 9.77732 25.8011 8.83539 29.3765 8.83911C29.836 8.83911 30.2918 8.85459 30.7439 8.88554C34.3065 12.2204 33.2432 15.2623 30.8331 18.0112C29.4052 19.5344 27.8733 20.9552 26.2485 22.2635C23.8988 24.2743 21.7084 26.1507 20.8806 28.0271C19.9 30.2557 20.6196 32.2729 24.5802 34.034C26.5605 34.9178 27.6366 35.603 28.0568 36.1153C28.0624 36.122 28.0688 36.128 28.0759 36.1329L28.0314 36.1473C27.0723 36.514 26.0516 36.6901 25.0259 36.6661C20.2248 36.871 16.8054 33.7843 14.1502 31.3956C12.2399 29.6857 10.6481 28.264 9.00523 28.2512C9.1804 24.9838 10.1293 21.8059 11.773 18.982C13.4167 16.1582 15.7075 13.7702 18.4546 12.0171L18.6106 11.9194ZM35.8427 49.0338C35.6063 47.5328 35.8823 45.9956 36.6259 44.6727C37.635 43.0432 38.9295 41.6112 40.4464 40.446C46.3236 35.5149 46.6548 32.7612 46.9095 30.6415C47.0686 29.3175 47.188 28.3265 49.735 26.8984C50.3423 31.6373 49.2871 36.4409 46.7512 40.4814C44.2153 44.522 40.3576 47.5465 35.8427 49.0338ZM49.4087 24.9996C45.4895 27.0249 45.3096 28.4786 45.0692 30.4558C44.8527 32.2489 44.5726 34.5928 39.2621 39.05C37.5608 40.3583 36.1145 41.9714 34.9958 43.8081C34.0202 45.5427 33.6821 47.567 34.0407 49.5269C31.0952 50.2041 28.0373 50.2186 25.0856 49.5694C22.1339 48.9202 19.3612 47.6232 16.9656 45.7713C14.5701 43.9194 12.6108 41.5582 11.2278 38.8564C9.84485 36.1546 9.07232 33.1789 8.96544 30.142C9.97787 30.142 11.2896 31.3524 12.9006 32.7933C15.8169 35.4125 19.5482 38.7554 25.1071 38.5569C26.4169 38.5796 27.7173 38.3311 28.9276 37.8268C29.1797 37.7147 29.4047 37.5491 29.5872 37.3412C29.7696 37.1334 29.9052 36.8883 29.9846 36.6228C30.0513 36.3278 30.0443 36.0208 29.9643 35.7292C29.8843 35.4375 29.7338 35.1703 29.5261 34.9514C28.9276 34.2149 27.6159 33.3504 25.3618 32.3322C22.6683 31.1346 22.0825 29.9691 22.611 28.778C23.2478 27.2794 25.2981 25.576 27.4758 23.6548C29.1704 22.2752 30.7663 20.7772 32.2514 19.172C34.8812 16.1605 36.2455 12.8816 33.6698 9.2954C37.51 10.1291 41.0327 12.0509 43.8217 14.8337C46.6106 17.6166 48.5493 21.1441 49.4087 24.9996Z"
              fill="#1D1D1B"/>
        <path d="M47.3304 48.1564L47.3265 48.1603L47.3304 48.1564Z" fill="black"/>
        <path d="M52.5144 45.6268C52.3433 45.5445 52.1506 45.5189 51.9641 45.5537C51.7776 45.5885 51.6069 45.682 51.4765 45.8206C50.999 46.2897 50.5357 46.7635 50.0661 47.2374C50.0423 47.2599 50.0184 47.2871 49.9802 47.2759L46.8665 46.5522C46.2759 46.4193 45.9034 47.2294 46.3762 47.6057C46.6754 47.8138 47.0129 47.9563 47.3313 48.1564C47.6879 48.3982 48.1113 48.5535 48.4456 48.8336C48.1184 49.2318 47.7567 49.5998 47.3647 49.9335C46.9668 50.0056 45.9225 50.2329 45.8222 50.3258C45.7586 50.3858 45.7086 50.4588 45.6756 50.54C45.6426 50.6211 45.6273 50.7085 45.6307 50.7961C45.6342 50.8837 45.6564 50.9695 45.6957 51.0478C45.7351 51.126 45.7907 51.1948 45.8588 51.2495C46.2058 51.4865 46.9031 51.3472 47.04 51.8243C47.1992 52.1285 47.1307 52.58 47.4093 52.7977C47.4879 52.8678 47.5837 52.9155 47.6868 52.9357C47.7899 52.9559 47.8965 52.9479 47.9955 52.9126C48.0945 52.8773 48.1823 52.8159 48.2497 52.7349C48.3171 52.6539 48.3617 52.5561 48.3787 52.4519C48.4249 52.1941 48.5889 51.3616 48.6271 51.2047C48.9279 50.8285 49.3052 50.5163 49.6363 50.1625C49.7382 49.9207 50.636 51.6034 50.792 51.9332C51.0101 52.684 52.1531 52.4743 51.9796 51.6626C51.8841 51.1599 51.3508 49.1154 51.2664 48.5711C51.2234 48.5054 51.3253 48.4894 51.3349 48.435C51.3812 48.3958 51.4239 48.3524 51.4622 48.3053C51.5094 48.2672 51.5526 48.2242 51.5911 48.1772C51.6325 48.1324 51.6898 48.1036 51.7185 48.0475C51.7653 48.009 51.8085 47.9661 51.8474 47.9195C51.8942 47.8807 51.9369 47.8373 51.9748 47.7898C52.0215 47.7516 52.0642 47.7087 52.1021 47.6617C52.1498 47.6234 52.193 47.5799 52.2311 47.532C52.2778 47.4938 52.3205 47.4509 52.3584 47.4039C52.4057 47.3658 52.4489 47.3229 52.4874 47.2759C52.5337 47.2367 52.5764 47.1933 52.6147 47.1462C52.6624 47.1079 52.7056 47.0644 52.7437 47.0165C52.844 46.9208 52.9194 46.8019 52.9634 46.6701C53.0074 46.5383 53.0186 46.3976 52.996 46.2605C52.9733 46.1233 52.9176 45.9938 52.8337 45.8833C52.7497 45.7729 52.6401 45.6848 52.5144 45.6268Z"
              fill="black"/>
    </g>
    <defs>
        <clipPath id="clip0">
            <rect width="53" height="59" fill="white"/>
        </clipPath>
    </defs>
</svg>
